<svg width="61" height="28" viewBox="0 0 61 28" fill="none" xmlns="http://www.w3.org/2000/svg">
<path d="M6.12211 27.1381C5.62551 27.3798 5.02702 27.1732 4.78532 26.6766L0.846716 18.5841C0.605024 18.0876 0.811662 17.4891 1.30825 17.2474C1.80484 17.0057 2.40334 17.2123 2.64503 17.7089L6.14602 24.9022L13.3393 21.4012C13.8359 21.1595 14.4344 21.3661 14.6761 21.8627C14.9178 22.3593 14.7111 22.9578 14.2145 23.1995L6.12211 27.1381ZM59.4401 0.930325C60.4319 1.05821 60.4318 1.05879 60.4317 1.05945C60.4317 1.05978 60.4316 1.06052 60.4315 1.06116C60.4313 1.06246 60.4311 1.06406 60.4309 1.06597C60.4304 1.06978 60.4297 1.07481 60.4288 1.08104C60.4271 1.09349 60.4247 1.11071 60.4215 1.13248C60.4151 1.17603 60.4057 1.23785 60.3927 1.31624C60.3668 1.47294 60.3268 1.69622 60.2691 1.97237C60.1537 2.52384 59.9666 3.29073 59.678 4.16198C59.1061 5.88831 58.1103 8.10218 56.4156 9.84114C54.6898 11.612 52.2553 12.8678 48.9382 12.631C45.6749 12.398 41.6661 10.7283 36.7074 6.92832L37.3156 6.13459L37.9239 5.34085C42.7273 9.02186 46.3651 10.4422 49.0806 10.6361C51.7422 10.8261 53.6185 9.84573 54.9833 8.44527C56.3792 7.01291 57.2537 5.12034 57.7795 3.53306C58.0397 2.7475 58.2083 2.0558 58.3114 1.56287C58.3629 1.31683 58.3978 1.12146 58.4195 0.990061C58.4304 0.924394 58.4379 0.874802 58.4426 0.842953C58.4449 0.827031 58.4465 0.815554 58.4475 0.808731C58.4479 0.805319 58.4482 0.803072 58.4484 0.802015C58.4484 0.801486 58.4485 0.801256 58.4485 0.801326C58.4485 0.80136 58.4484 0.801641 58.4484 0.801657C58.4484 0.802012 58.4483 0.802443 59.4401 0.930325ZM37.3156 6.13459L36.7074 6.92832C32.0421 3.35315 27.9545 2.84494 24.4282 3.92031C20.8291 5.0179 17.6417 7.81731 14.9621 11.1973C12.2942 14.5625 10.2085 18.4031 8.78573 21.4201C8.07604 22.925 7.53507 24.2169 7.17223 25.1305C6.99088 25.5872 6.8542 25.9489 6.76336 26.195C6.71795 26.3181 6.68401 26.4122 6.66169 26.4748C6.65053 26.5061 6.64227 26.5295 6.63694 26.5447C6.63427 26.5523 6.63234 26.5578 6.63113 26.5613C6.63053 26.563 6.63012 26.5642 6.62988 26.5649C6.62976 26.5652 6.62973 26.5653 6.62967 26.5655C6.62968 26.5655 6.62973 26.5653 5.68448 26.2389C4.73923 25.9126 4.73938 25.9122 4.73958 25.9116C4.7397 25.9112 4.73994 25.9106 4.74019 25.9098C4.7407 25.9084 4.74139 25.9064 4.74226 25.9039C4.74401 25.8988 4.7465 25.8917 4.74973 25.8825C4.75618 25.8641 4.76559 25.8374 4.77794 25.8028C4.80262 25.7336 4.83904 25.6327 4.88707 25.5025C4.98312 25.2423 5.12562 24.8653 5.31345 24.3923C5.68897 23.4467 6.2464 22.1159 6.97679 20.5671C8.43419 17.4767 10.5955 13.4859 13.3949 9.95478C16.1826 6.43839 19.6827 3.27659 23.8448 2.00729C28.0798 0.715787 32.8271 1.43503 37.9239 5.34085L37.3156 6.13459Z" fill="white"/>
</svg>
