<svg height="512" viewBox="0 0 512 512" width="512" xmlns="http://www.w3.org/2000/svg"><g id="Layer_2"><g><path d="m342.243 504.963h-199.79c-16.789 0-30.4-13.61-30.4-30.4v-395.719c0-16.789 13.61-30.4 30.4-30.4h199.79c16.789 0 30.4 13.61 30.4 30.4v395.719c0 16.79-13.611 30.4-30.4 30.4z" fill="#cdcdc6"/><path d="m135.362 474.563v-395.719c0-16.789 13.61-30.4 30.4-30.4h-23.309c-16.789 0-30.4 13.61-30.4 30.4v395.719c0 16.789 13.61 30.4 30.4 30.4h23.309c-16.79 0-30.4-13.61-30.4-30.4z" fill="#989898"/><path d="m112.053 97.166h260.589v359.076h-260.589z" fill="#fff"/><path d="m112.053 97.166h23.309v359.076h-23.309z" fill="#cdcdc6"/><path d="m239.591 425.586h-217.686c-7.855 0-14.223-6.368-14.223-14.223v-104.755c0-7.855 6.368-14.223 14.223-14.223h217.687c7.855 0 14.223 6.368 14.223 14.223v104.755c0 7.855-6.368 14.223-14.224 14.223z" fill="#f8d250"/><path d="m30.832 411.362v-104.754c0-7.855 6.368-14.223 14.223-14.223h-23.15c-7.855 0-14.223 6.368-14.223 14.223v104.755c0 7.855 6.368 14.223 14.223 14.223h23.151c-7.856 0-14.224-6.368-14.224-14.224z" fill="#f8ae46"/><path d="m151.245 201.419v-116.809h-78.383v116.809h-22.036l61.227 49.107 61.228-49.107z" fill="#e15f4f"/><path d="m74.134 201.419h22.036v-116.809h-23.308v116.809h-22.036l61.227 49.107 11.655-9.347z" fill="#ca4336"/><path d="m475.824 8.009h-272.766c-8.284 0-15 6.716-15 15v167.726c0 8.284 6.716 15 15 15h53.223v40.986l44.154-40.986h175.39c8.284 0 15-6.716 15-15v-167.726c-.001-8.284-6.717-15-15.001-15z" fill="#68c0e0"/><g><path d="m211.367 190.735v-167.726c0-8.284 6.716-15 15-15h-23.309c-8.284 0-15 6.716-15 15v167.726c0 8.284 6.716 15 15 15h23.309c-8.284 0-15-6.715-15-15z" fill="#3282a1"/></g><g><path d="m412.455 126.671h29.973v52.18h-29.973z" fill="#e15f4f" transform="matrix(-1 0 0 -1 854.882 305.523)"/><path d="m368.455 99.74h29.973v53.022h-29.973z" fill="#4eb7a2" transform="matrix(-1 0 0 -1 766.882 252.501)"/><path d="m324.455 134.221h29.973v37.082h-29.973z" fill="#e15f4f" transform="matrix(-1 0 0 -1 678.882 305.523)"/><path d="m280.455 104.621h29.973v22.05h-29.973z" fill="#e15f4f" transform="matrix(-1 0 0 -1 590.882 231.293)"/><path d="m236.455 68.196h29.973v63.088h-29.973z" fill="#4eb7a2" transform="matrix(-1 0 0 -1 502.882 199.48)"/></g><path d="m504.476 424.515-2.331-2.331c-8.212-8.212-14.323-18.391-17.101-29.667-1.502-6.096-4.629-11.873-9.384-16.643l-68.046-68.266c-7.115-7.115-18.649-7.115-25.764 0-7.115 7.115-7.115 18.649 0 25.764l-5.089-5.089c-7.115-7.115-18.649-7.115-25.764 0-7.115 7.115-7.115 18.649 0 25.764l-5.089-5.089c-7.115-7.115-18.649-7.115-25.764 0-7.115 7.115-7.115 18.649 0 25.764l-44.051-44.051c-7.271-7.271-19.157-7.111-26.225.478-6.732 7.229-6.215 18.61.77 25.595l79.345 79.345c-.312.28-.619.568-.919.867-8.945 8.945-8.945 23.447 0 32.391l23.352 23.352c6.349 6.349 14.29 10.129 22.537 11.345.847.125 1.688.27 2.526.431h126.996v-79.96z" fill="#ffcebf"/><path d="m398.263 504.045c-8.247-1.216-16.189-4.997-22.537-11.345l-23.352-23.352c-4.792-4.792-6.991-11.178-6.649-17.451l15.179 15.215c3.212 3.22 8.428 3.223 11.644.007 3.21-3.21 3.214-8.413.009-11.628l-98.609-98.747c-6.985-6.985-7.503-18.366-.77-25.595.535-.575 1.106-1.093 1.693-1.582-7.324-6.117-18.315-5.597-25.001 1.582-6.732 7.229-6.215 18.61.77 25.595l79.33 79.359c-.307.275-.609.558-.904.853-8.945 8.945-8.945 23.447 0 32.391l23.352 23.352c6.349 6.349 14.29 10.129 22.537 11.345 1.616.238 3.216.547 4.797.918h23.309c-1.582-.37-3.182-.679-4.798-.917z" fill="#ffb09e"/><g><path d="m398.428 94.74h-9.986v-5.701c0-2.761-2.239-5-5-5s-5 2.239-5 5v5.701h-9.987c-2.761 0-5 2.239-5 5v53.021c0 2.761 2.239 5 5 5h9.987v5.701c0 2.761 2.239 5 5 5s5-2.239 5-5v-5.701h9.986c2.761 0 5-2.239 5-5v-53.021c0-2.761-2.239-5-5-5zm-5 53.021h-19.973v-43.021h19.973z"/><path d="m354.428 129.221h-9.986v-5.701c0-2.761-2.239-5-5-5s-5 2.239-5 5v5.701h-9.987c-2.761 0-5 2.239-5 5v37.082c0 2.761 2.239 5 5 5h9.987v5.662c0 2.761 2.239 5 5 5s5-2.239 5-5v-5.662h9.986c2.761 0 5-2.239 5-5v-37.082c0-2.762-2.239-5-5-5zm-5 37.081h-9.596c-.131-.01-.256-.039-.39-.039s-.259.029-.39.039h-9.597v-27.082h19.973z"/><path d="m310.428 99.621h-10.032v-5.701c0-2.761-2.239-5-5-5s-5 2.239-5 5v5.701h-9.941c-2.761 0-5 2.239-5 5v22.05c0 2.761 2.239 5 5 5h9.941v5.701c0 2.761 2.239 5 5 5s5-2.239 5-5v-5.701h10.032c2.761 0 5-2.239 5-5v-22.05c0-2.761-2.239-5-5-5zm-5 22.05h-19.973v-12.05h19.973z"/><path d="m236.455 136.284h9.987v5.701c0 2.761 2.239 5 5 5s5-2.239 5-5v-5.701h9.986c2.761 0 5-2.239 5-5v-63.088c0-2.761-2.239-5-5-5h-9.986v-5.701c0-2.761-2.239-5-5-5s-5 2.239-5 5v5.701h-9.987c-2.761 0-5 2.239-5 5v63.088c0 2.761 2.238 5 5 5zm5-63.088h19.973v53.088h-19.973z"/><path d="m432.441 115.97c0-2.761-2.239-5-5-5s-5 2.239-5 5v5.701h-9.987c-2.761 0-5 2.239-5 5v52.18c0 2.761 2.239 5 5 5h9.987v5.653c0 2.761 2.239 5 5 5s5-2.239 5-5v-5.653h9.986c2.761 0 5-2.239 5-5v-52.18c0-2.761-2.239-5-5-5h-9.986zm4.987 57.882h-9.504c-.161-.016-.317-.049-.482-.049s-.321.033-.482.049h-9.505v-42.18h19.973z"/><path d="m247.577 34.897 89.505 47.918c1.731.927 3.847.755 5.404-.442l40.956-31.44 35.253 27.063-1.723.227c-2.738.36-4.666 2.871-4.306 5.609.331 2.517 2.479 4.349 4.951 4.349.217 0 .437-.014.658-.043l13.691-1.8c2.738-.36 4.666-2.871 4.306-5.609l-1.799-13.692c-.36-2.738-2.875-4.667-5.609-4.306-2.738.36-4.666 2.871-4.306 5.609l.227 1.724-38.298-29.4c-1.795-1.378-4.294-1.378-6.089 0l-41.44 31.812-86.66-46.395c-2.434-1.304-5.464-.386-6.768 2.048-1.305 2.435-.388 5.465 2.047 6.768z"/><path d="m89.508 340.835c0-12.765-10.385-23.15-23.15-23.15h-28.915c-2.761 0-5 2.239-5 5v36.301 36.301c0 2.761 2.239 5 5 5h28.915c12.765 0 23.15-10.385 23.15-23.15 0-7.35-3.447-13.906-8.806-18.15 5.358-4.246 8.806-10.802 8.806-18.152zm-10 36.3c0 7.251-5.899 13.15-13.15 13.15h-23.915v-26.301h23.915c7.25.001 13.15 5.9 13.15 13.151zm-37.065-23.15v-26.301h23.915c7.251 0 13.15 5.899 13.15 13.15s-5.899 13.15-13.15 13.15h-23.915z"/><path d="m154.281 317.685c-2.761 0-5 2.239-5 5v49.069c0 10.219-8.314 18.532-18.533 18.532s-18.533-8.314-18.533-18.532v-49.069c0-2.761-2.239-5-5-5s-5 2.239-5 5v49.069c0 15.733 12.8 28.532 28.533 28.532s28.533-12.8 28.533-28.532v-49.069c0-2.762-2.239-5-5-5z"/><path d="m226.773 318.489c-2.318-1.502-5.413-.841-6.915 1.476l-19.337 29.829-19.337-29.829c-1.501-2.317-4.598-2.978-6.915-1.476s-2.978 4.598-1.476 6.915l22.728 35.06v34.822c0 2.761 2.239 5 5 5s5-2.239 5-5v-34.822l22.728-35.059c1.502-2.318.841-5.414-1.476-6.916z"/><path d="m508.012 420.979-2.331-2.331c-7.855-7.855-13.313-17.305-15.782-27.328-1.766-7.165-5.465-13.727-10.698-18.977l-68.051-68.272c-4.385-4.385-10.216-6.801-16.417-6.801s-12.032 2.415-16.417 6.8c-.237.237-.447.491-.672.736v-94.073h98.182c11.028 0 20-8.972 20-20v-167.724c0-11.028-8.972-20-20-20h-272.768c-11.028 0-20 8.972-20 20v20.435h-40.605c-19.52 0-35.4 15.88-35.4 35.4v.766h-34.191c-2.761 0-5 2.239-5 5v111.809h-17.036c-2.122 0-4.013 1.34-4.717 3.342s-.067 4.23 1.589 5.558l59.356 47.607v34.459h-85.149c-10.6 0-19.223 8.624-19.223 19.223v104.755c0 10.6 8.624 19.223 19.223 19.223h85.148v43.978c0 19.52 15.88 35.4 35.4 35.4h199.79c6.758 0 13.075-1.909 18.451-5.209 4.217 2.1 8.764 3.534 13.53 4.237.773.114 2.938.485 3.256.485h126.996c2.761 0 5-2.239 5-5v-79.961c0-1.327-.527-2.599-1.464-3.537zm-314.954-397.97c0-5.514 4.486-10 10-10h272.766c5.514 0 10 4.486 10 10v167.726c0 5.514-4.486 10-10 10h-175.39c-1.262 0-2.477.477-3.402 1.335l-35.751 33.187v-29.522c0-2.761-2.239-5-5-5h-53.223c-5.514 0-10-4.486-10-10zm-76.005 55.835c0-14.005 11.395-25.4 25.4-25.4h40.605v38.721h-26.813v-7.555c0-2.761-2.239-5-5-5h-34.192zm-44.191 127.575c2.761 0 5-2.239 5-5v-111.809h68.383v111.809c0 2.761 2.239 5 5 5h7.811l-47.002 37.698-47.002-37.698zm44.191 46.507 59.356-47.607c1.655-1.328 2.292-3.556 1.589-5.558-.704-2.002-2.595-3.342-4.717-3.342h-17.036v-94.253h26.813v88.57c0 11.028 8.972 20 20 20h48.223v35.986c0 1.989 1.178 3.788 3.001 4.583.643.281 1.323.417 1.998.417 1.238 0 2.459-.46 3.403-1.335l42.714-39.65h65.245v107.519c-1.233-.2-2.489-.307-3.763-.307-6.202 0-12.032 2.415-16.417 6.8-4.213 4.213-6.465 9.656-6.757 15.183-8.155-2.844-17.591-1.012-24.096 5.492-3.47 3.47-5.61 7.774-6.419 12.273l-30.56-30.56c-4.496-4.496-10.468-6.907-16.833-6.797-1.353.024-2.683.169-3.983.416v-14.148c0-10.6-8.624-19.223-19.224-19.223h-122.537zm-104.371 158.437v-104.755c0-5.086 4.138-9.223 9.223-9.223h217.687c5.086 0 9.224 4.137 9.224 9.223v18.725c-.918.729-1.789 1.533-2.605 2.409-8.414 9.035-8.013 23.631.894 32.538l1.711 1.711v49.371c0 5.086-4.138 9.223-9.224 9.223h-217.687c-5.086.001-9.223-4.137-9.223-9.222zm226.909 19.223c10.6 0 19.224-8.624 19.224-19.223v-39.371l56.928 56.927c.159.222.324.441.523.641l6.749 6.749c-3.406 4.492-5.248 9.789-5.57 15.161h-200.392v-20.884zm102.652 69.377h-199.79c-14.005 0-25.4-11.394-25.4-25.4v-13.093h201.599c1.298 4.177 3.575 8.112 6.877 11.414l23.352 23.352c.728.728 1.48 1.421 2.247 2.092-2.767 1.044-5.755 1.635-8.885 1.635zm157.233-.487h-121.527c-.751-.139-1.506-.266-2.266-.378-7.518-1.109-14.341-4.544-19.731-9.934l-23.352-23.352c-6.053-6.053-6.848-15.394-2.404-22.322l29.12 29.12c.977.976 2.256 1.464 3.536 1.464s2.559-.488 3.536-1.464c1.953-1.953 1.953-5.119 0-7.071l-32.356-32.356c-.157-.219-.319-.436-.512-.63l-79.345-79.344c-5.144-5.144-5.434-13.511-.646-18.652 2.474-2.657 5.829-4.155 9.447-4.219 3.605-.065 7.024 1.31 9.583 3.869l44.05 44.051c1.953 1.952 5.118 1.953 7.071 0s1.953-5.118 0-7.071c-5.153-5.154-5.153-13.54 0-18.693 5.154-5.154 13.54-5.154 18.693 0l5.088 5.089c1.953 1.953 5.118 1.953 7.071 0s1.953-5.118 0-7.071c-5.153-5.154-5.153-13.539 0-18.693 2.497-2.496 5.815-3.871 9.346-3.871s6.85 1.375 9.346 3.872l5.089 5.089c1.953 1.953 5.118 1.952 7.071 0 1.953-1.953 1.953-5.118 0-7.071-2.497-2.496-3.872-5.816-3.872-9.346 0-3.531 1.375-6.85 3.872-9.346s5.815-3.871 9.346-3.871 6.85 1.375 9.341 3.866l68.046 68.266c3.949 3.962 6.74 8.91 8.07 14.31 2.906 11.794 9.276 22.862 18.42 32.007l.867.867v72.885z"/><path d="m289.169 250.402h58.987c2.761 0 5-2.239 5-5s-2.239-5-5-5h-58.987c-2.761 0-5 2.239-5 5s2.239 5 5 5z"/><path d="m269.302 270.402h78.854c2.761 0 5-2.239 5-5s-2.239-5-5-5h-78.854c-2.761 0-5 2.239-5 5s2.239 5 5 5z"/></g></g></g></svg>