<svg height="512" viewBox="0 0 60 60" width="512" xmlns="http://www.w3.org/2000/svg"><g id="_4-Accounting" data-name="4-Accounting"><rect fill="#9196aa" height="58" rx="5" width="44" x="1" y="1"/><rect fill="#cdd2e1" height="8" rx="3" width="8" x="32" y="35"/><rect fill="#cdd2e1" height="8" rx="3" width="8" x="32" y="47"/><rect fill="#cdd2e1" height="8" rx="3" width="8" x="6" y="47"/><rect fill="#cdd2e1" height="8" rx="3" width="8" x="19" y="35"/><rect fill="#cdd2e1" height="8" rx="3" width="8" x="32" y="23"/><rect fill="#cdd2e1" height="8" rx="3" width="8" x="6" y="35"/><rect fill="#cdd2e1" height="8" rx="3" width="8" x="6" y="23"/><rect fill="#cdd2e1" height="8" rx="3" width="8" x="19" y="47"/><rect fill="#cdd2e1" height="8" rx="3" width="8" x="19" y="23"/><rect fill="#65b1fc" height="14" rx="4" width="36" x="5" y="5"/><path d="m12.027 5h-3.027a4 4 0 0 0 -4 4v6a3.975 3.975 0 0 0 1.033 2.662c-.009-.221-.033-.439-.033-.662a14.963 14.963 0 0 1 6.027-12z" fill="#87c7ff"/><path d="m9 19h1a14.991 14.991 0 0 1 9.65-14h-7.623a14.963 14.963 0 0 0 -6.027 12c0 .223.024.441.033.662a3.978 3.978 0 0 0 2.967 1.338z" fill="#a3d4ff"/><circle cx="43" cy="43" fill="#ffc247" r="16"/><circle cx="43" cy="43" fill="#ffe45c" r="12"/><path d="m34 45a11.981 11.981 0 0 1 17.067-10.867 11.99 11.99 0 1 0 -13.134 19.734 11.952 11.952 0 0 1 -3.933-8.867z" fill="#fff" opacity=".54"/><path d="m38 47a11.95 11.95 0 0 1 14.106-11.8 11.983 11.983 0 0 0 -1.039-1.063 11.986 11.986 0 0 0 -13.134 19.73 11.865 11.865 0 0 0 2.961.937 11.945 11.945 0 0 1 -2.894-7.804z" fill="#fff" opacity=".19"/><g fill="#2b1505"><path d="m9 20h28a5.006 5.006 0 0 0 5-5v-6a5.006 5.006 0 0 0 -5-5h-28a5.006 5.006 0 0 0 -5 5v6a5.006 5.006 0 0 0 5 5zm-3-11a3 3 0 0 1 3-3h28a3 3 0 0 1 3 3v6a3 3 0 0 1 -3 3h-28a3 3 0 0 1 -3-3z"/><path d="m10 13h1.132l-.964 1.445a1 1 0 0 0 1.664 1.11l1.168-1.755 1.168 1.752a1 1 0 0 0 1.664-1.11l-.964-1.442h1.132a1 1 0 0 0 0-2h-1.132l.964-1.445a1 1 0 0 0 -1.664-1.11l-1.168 1.755-1.168-1.755a1 1 0 1 0 -1.664 1.11l.964 1.445h-1.132a1 1 0 0 0 0 2z"/><path d="m20 13h1.132l-.964 1.445a1 1 0 0 0 1.664 1.11l1.168-1.755 1.168 1.752a1 1 0 1 0 1.664-1.11l-.964-1.442h1.132a1 1 0 0 0 0-2h-1.132l.964-1.445a1 1 0 0 0 -1.664-1.11l-1.168 1.755-1.168-1.755a1 1 0 1 0 -1.664 1.11l.964 1.445h-1.132a1 1 0 0 0 0 2z"/><path d="m30 13h1.132l-.964 1.445a1 1 0 0 0 1.664 1.11l1.168-1.755 1.168 1.752a1 1 0 1 0 1.664-1.11l-.964-1.442h1.132a1 1 0 0 0 0-2h-1.132l.964-1.445a1 1 0 1 0 -1.664-1.11l-1.168 1.755-1.168-1.755a1 1 0 0 0 -1.664 1.11l.964 1.445h-1.132a1 1 0 0 0 0 2z"/><path d="m11 22h-2a4 4 0 0 0 -4 4v2a4 4 0 0 0 4 4h2a4 4 0 0 0 4-4v-2a4 4 0 0 0 -4-4zm2 6a2 2 0 0 1 -2 2h-2a2 2 0 0 1 -2-2v-2a2 2 0 0 1 2-2h2a2 2 0 0 1 2 2z"/><path d="m24 22h-2a4 4 0 0 0 -4 4v2a4 4 0 0 0 4 4h2a4 4 0 0 0 4-4v-2a4 4 0 0 0 -4-4zm2 6a2 2 0 0 1 -2 2h-2a2 2 0 0 1 -2-2v-2a2 2 0 0 1 2-2h2a2 2 0 0 1 2 2z"/><path d="m11 34h-2a4 4 0 0 0 -4 4v2a4 4 0 0 0 4 4h2a4 4 0 0 0 4-4v-2a4 4 0 0 0 -4-4zm2 6a2 2 0 0 1 -2 2h-2a2 2 0 0 1 -2-2v-2a2 2 0 0 1 2-2h2a2 2 0 0 1 2 2z"/><path d="m11 46h-2a4 4 0 0 0 -4 4v2a4 4 0 0 0 4 4h2a4 4 0 0 0 4-4v-2a4 4 0 0 0 -4-4zm2 6a2 2 0 0 1 -2 2h-2a2 2 0 0 1 -2-2v-2a2 2 0 0 1 2-2h2a2 2 0 0 1 2 2z"/><path d="m46 26.281v-20.281a6.006 6.006 0 0 0 -6-6h-34a6.006 6.006 0 0 0 -6 6v48a6.006 6.006 0 0 0 6 6h37a16.992 16.992 0 0 0 3-33.719zm-40 31.719a4 4 0 0 1 -4-4v-48a4 4 0 0 1 4-4h34a4 4 0 0 1 4 4v20.051c-.333-.02-.662-.051-1-.051a17.138 17.138 0 0 0 -2 .128v-.128a4 4 0 0 0 -4-4h-2a4 4 0 0 0 -4 4v2a4 4 0 0 0 .736 2.3 17.074 17.074 0 0 0 -4.249 5.778 3.986 3.986 0 0 0 -3.487-2.078h-2a4 4 0 0 0 -4 4v2a4 4 0 0 0 4 4h2a3.959 3.959 0 0 0 2.022-.568 16.939 16.939 0 0 0 .44 3.439 3.961 3.961 0 0 0 -2.462-.871h-2a4 4 0 0 0 -4 4v2a4 4 0 0 0 4 4h2a4 4 0 0 0 4-4v-1.017a17.114 17.114 0 0 0 7.017 7.017zm27.31-28.95a1.989 1.989 0 0 1 -.31-1.05v-2a2 2 0 0 1 2-2h2a2 2 0 0 1 2 2v.5a16.935 16.935 0 0 0 -5.69 2.55zm-9.31 12.95h-2a2 2 0 0 1 -2-2v-2a2 2 0 0 1 2-2h2a2 2 0 0 1 2 2v2a2 2 0 0 1 -2 2zm2 8v2a2 2 0 0 1 -2 2h-2a2 2 0 0 1 -2-2v-2a2 2 0 0 1 2-2h2a2 2 0 0 1 2 2zm17 8a15 15 0 1 1 15-15 15.017 15.017 0 0 1 -15 15z"/><path d="m43 38a3 3 0 0 1 3 3 1 1 0 0 0 2 0 5.009 5.009 0 0 0 -4-4.9v-1.1a1 1 0 0 0 -2 0v1.062c-2.521.293-4 1.714-4 3.938 0 2.505 1.869 4 5 4 3 0 3 1.505 3 2s0 2-3 2a3 3 0 0 1 -3-3 1 1 0 0 0 -2 0 5.009 5.009 0 0 0 4 4.9v1.1a1 1 0 0 0 2 0v-1.062c2.521-.293 4-1.714 4-3.938 0-2.505-1.869-4-5-4-3 0-3-1.505-3-2s0-2 3-2z"/><path d="m43 30a13 13 0 1 0 13 13 13.015 13.015 0 0 0 -13-13zm0 24a11 11 0 1 1 11-11 11.013 11.013 0 0 1 -11 11z"/></g></g></svg>