<svg id="Layer_1" enable-background="new 0 0 480 480" height="512" viewBox="0 0 480 480" width="512" xmlns="http://www.w3.org/2000/svg"><g><path d="m338 0h-298c-22.091 0-40 17.909-40 40v400c0 22.091 17.909 40 40 40h237.141c7.48 0 10.849-9.328 5.12-14.138-28.85-24.217-46.641-60.311-46.641-99.862 0-73.738 61.142-132.401 134.082-130.326 4.533.129 8.298-3.457 8.298-7.992v-187.682c0-22.091-17.909-40-40-40zm-212 414.88c0 11.65-9.47 21.12-21.12 21.12h-34.76c-11.65 0-21.12-9.47-21.12-21.12v-24.76c0-11.65 9.47-21.12 21.12-21.12h34.76c11.65 0 21.12 9.47 21.12 21.12zm0-96c0 11.65-9.47 21.12-21.12 21.12h-34.76c-11.65 0-21.12-9.47-21.12-21.12v-24.76c0-11.65 9.47-21.12 21.12-21.12h34.76c11.65 0 21.12 9.47 21.12 21.12zm0-96c0 11.65-9.47 21.12-21.12 21.12h-34.76c-11.65 0-21.12-9.47-21.12-21.12v-24.76c0-11.65 9.47-21.12 21.12-21.12h34.76c11.65 0 21.12 9.47 21.12 21.12zm101 192c0 11.65-9.47 21.12-21.12 21.12h-34.76c-11.65 0-21.12-9.47-21.12-21.12v-24.76c0-11.65 9.47-21.12 21.12-21.12h34.76c11.65 0 21.12 9.47 21.12 21.12zm0-96c0 11.65-9.47 21.12-21.12 21.12h-34.76c-11.65 0-21.12-9.47-21.12-21.12v-24.76c0-11.65 9.47-21.12 21.12-21.12h34.76c11.65 0 21.12 9.47 21.12 21.12zm0-96c0 11.65-9.47 21.12-21.12 21.12h-34.76c-11.65 0-21.12-9.47-21.12-21.12v-24.76c0-11.65 9.47-21.12 21.12-21.12h34.76c11.65 0 21.12 9.47 21.12 21.12zm102 0c0 11.65-9.47 21.12-21.12 21.12h-34.76c-11.65 0-21.12-9.47-21.12-21.12v-24.76c0-11.65 9.47-21.12 21.12-21.12h34.76c11.65 0 21.12 9.47 21.12 21.12zm0-97.88c0 13.23-10.77 24-24 24h-232c-13.23 0-24-10.77-24-24v-56c0-13.23 10.77-24 24-24h232c13.23 0 24 10.77 24 24z"/><path d="m305 61h-232c-4.41 0-8 3.59-8 8v56c0 4.41 3.59 8 8 8h232c4.41 0 8-3.59 8-8v-56c0-4.41-3.59-8-8-8zm-17 51c0 4.42-3.58 8-8 8s-8-3.58-8-8v-22c-4.42 0-8-3.58-8-8s3.58-8 8-8h8c4.42 0 8 3.58 8 8z"/><path d="m110 198.12v24.76c0 2.82-2.3 5.12-5.12 5.12h-34.76c-2.82 0-5.12-2.3-5.12-5.12v-24.76c0-2.82 2.3-5.12 5.12-5.12h34.76c2.82 0 5.12 2.3 5.12 5.12z"/><path d="m211 198.12v24.76c0 2.82-2.3 5.12-5.12 5.12h-34.76c-2.82 0-5.12-2.3-5.12-5.12v-24.76c0-2.82 2.3-5.12 5.12-5.12h34.76c2.82 0 5.12 2.3 5.12 5.12z"/><path d="m313 198.12v24.76c0 2.82-2.3 5.12-5.12 5.12h-34.76c-2.82 0-5.12-2.3-5.12-5.12v-24.76c0-2.82 2.3-5.12 5.12-5.12h34.76c2.82 0 5.12 2.3 5.12 5.12z"/><path d="m110 294.12v24.76c0 2.82-2.3 5.12-5.12 5.12h-34.76c-2.82 0-5.12-2.3-5.12-5.12v-24.76c0-2.82 2.3-5.12 5.12-5.12h34.76c2.82 0 5.12 2.3 5.12 5.12z"/><path d="m211 294.12v24.76c0 2.82-2.3 5.12-5.12 5.12h-34.76c-2.82 0-5.12-2.3-5.12-5.12v-24.76c0-2.82 2.3-5.12 5.12-5.12h34.76c2.82 0 5.12 2.3 5.12 5.12z"/><path d="m110 390.12v24.76c0 2.82-2.3 5.12-5.12 5.12h-34.76c-2.82 0-5.12-2.3-5.12-5.12v-24.76c0-2.82 2.3-5.12 5.12-5.12h34.76c2.82 0 5.12 2.3 5.12 5.12z"/><path d="m211 390.12v24.76c0 2.82-2.3 5.12-5.12 5.12h-34.76c-2.82 0-5.12-2.3-5.12-5.12v-24.76c0-2.82 2.3-5.12 5.12-5.12h34.76c2.82 0 5.12 2.3 5.12 5.12z"/><path d="m366 252c-62.86 0-114 51.14-114 114s51.14 114 114 114 114-51.14 114-114-51.14-114-114-114zm8 167.95v10.05c0 4.42-3.58 8-8 8s-8-3.58-8-8v-10.04c-9.93-1.72-18.6-6.64-24.09-13.87-2.67-3.52-1.98-8.54 1.54-11.21 3.51-2.67 8.53-1.99 11.21 1.53 3.85 5.08 11.27 8.24 19.34 8.24 11.82 0 21.81-6.9 21.81-15.07 0-9.01-5.56-11.59-23.41-15.24-15.28-3.13-36.21-7.42-36.21-30.92 0-14.88 12.79-27.35 29.81-30.37v-10.05c0-4.42 3.58-8 8-8s8 3.58 8 8v10.04c9.93 1.72 18.6 6.64 24.09 13.87 2.67 3.52 1.98 8.54-1.54 11.21-3.51 2.67-8.53 1.99-11.21-1.53-3.85-5.08-11.27-8.24-19.34-8.24-11.82 0-21.81 6.9-21.81 15.07 0 9.01 5.56 11.59 23.41 15.24 15.28 3.13 36.21 7.42 36.21 30.92 0 14.88-12.79 27.35-29.81 30.37z"/></g></svg>