<svg clip-rule="evenodd" fill-rule="evenodd" stroke-linejoin="round" stroke-miterlimit="2" viewBox="0 0 510 510" xmlns="http://www.w3.org/2000/svg"><g><g><g><path d="m311.84 462.331h-152.161c12.149-17.182 22.214-61.48 17.833-95.636h115.399c-4.354 34.156 6.779 78.454 18.929 95.636z" fill="#cad0d7"/><path d="m433.209 62.425c12.854 0 23.283 10.429 23.283 23.283v261.85c0 17.495-14.183 31.678-31.678 31.678h-378.109c-17.521 0-31.705-14.183-31.705-31.678v-253.429c0-17.521 14.184-31.704 31.705-31.704z" fill="#a4d4ff"/><g fill="#a9b0bb"><path d="m456.492 316.192v31.366c0 17.495-14.183 31.678-31.678 31.678h-378.109c-17.521 0-31.705-14.183-31.705-31.678v-31.366z"/><path d="m132.563 456.412h206.393c10.611 0 19.294 8.682 19.294 19.294s-8.683 19.294-19.294 19.294h-206.393c-10.612 0-19.294-8.682-19.294-19.294s8.682-19.294 19.294-19.294z"/></g></g><g><path d="m476.421 36.381c10.212 0 18.579 8.354 18.579 18.579v160.195c0 10.213-8.367 18.579-18.579 18.579h-184.548c-10.213 0-18.579-8.366-18.579-18.579v-160.195c0-10.225 8.366-18.579 18.579-18.579z" fill="#f4f6f8"/><path d="m273.294 77.559h221.706v-22.599c0-10.225-8.367-18.579-18.579-18.579h-184.548c-10.213 0-18.579 8.354-18.579 18.579z" fill="#fdcd56"/><path d="m433.488 20c0-1.326.527-2.598 1.465-3.536.938-.937 2.209-1.464 3.535-1.464h13.882c1.326 0 2.598.527 3.536 1.464.938.938 1.464 2.21 1.464 3.536v32.356c0 1.326-.526 2.598-1.464 3.536s-2.21 1.464-3.536 1.464c-4.076 0-9.805 0-13.882 0-1.326 0-2.597-.526-3.535-1.464s-1.465-2.21-1.465-3.536c0-8.15 0-24.206 0-32.356zm-98.683 0c0-1.326-.526-2.598-1.464-3.536-.938-.937-2.21-1.464-3.536-1.464-4.076 0-9.805 0-13.882 0-1.326 0-2.597.527-3.535 1.464-.938.938-1.465 2.21-1.465 3.536v32.356c0 1.326.527 2.598 1.465 3.536s2.209 1.464 3.535 1.464h13.882c1.326 0 2.598-.526 3.536-1.464s1.464-2.21 1.464-3.536c0-8.15 0-24.206 0-32.356zm37.394 0c0-2.761 2.239-5 5-5h13.895c2.762 0 5 2.239 5 5v32.356c0 2.762-2.238 5-5 5h-13.895c-1.326 0-2.597-.526-3.535-1.464s-1.465-2.21-1.465-3.536c0-8.15 0-24.206 0-32.356z" fill="#a9b0bb"/><path d="m343.061 162.604c-4.815-4.135-5.366-11.402-1.23-16.217 4.136-4.814 11.402-5.365 16.217-1.23l16.659 14.31 35.385-31.507c4.74-4.221 12.015-3.799 16.236.941 4.221 4.741 3.799 12.016-.941 16.236l-42.897 38.196c-4.301 3.83-10.772 3.888-15.141.135z" fill="#c6ea94"/></g><path d="m179.261 163.062c1.326 0 2.598.526 3.535 1.464.938.938 1.465 2.21 1.465 3.536v54.271c0 1.326-.527 2.598-1.465 3.536-.937.937-2.209 1.464-3.535 1.464-18.251 0-81.164 0-99.415 0-1.326 0-2.597-.527-3.535-1.464-.938-.938-1.465-2.21-1.465-3.536v-54.271c0-1.326.527-2.598 1.465-3.536s2.209-1.464 3.535-1.464z" fill="#f4f6f8"/><path d="m134.577 268.062.072-61.425c0-6.283-5.139-11.431-11.422-11.44-6.283 0-11.439 5.139-11.439 11.422l.009 88.622c-9.934-3.299-15.145-2.019-18.742 3.489-4.065 6.202-2.515 14.387 3.48 18.741 26.088 18.931 27.368 28.487 59.028 30.298 27.179 1.56 47.831-20.535 47.903-45.722l-.279-34.363c.009-6.283-5.13-11.431-11.422-11.431-6.283-.009-11.43 5.13-11.421 11.422.009-6.274-5.13-11.422-11.422-11.422-6.283-.009-11.43 5.13-11.421 11.422.009-6.274-5.139-11.422-11.422-11.422-6.283-.009-11.529 5.517-11.502 11.809z" fill="#d5a889"/></g><path d="m171.543 386.236h-124.838c-21.391 0-38.705-17.319-38.705-38.678v-253.429c0-21.389 17.315-38.704 38.705-38.704h219.589v-.465c0-14.078 11.519-25.579 25.579-25.579h12.05v-14.381c0-3.866 3.134-7 7-7h23.882c3.866 0 7 3.134 7 7v14.381h23.394v-14.381c0-3.866 3.134-7 7-7h23.895c3.866 0 7 3.134 7 7v14.381h23.394v-14.381c0-3.866 3.134-7 7-7h23.882c3.866 0 7 3.134 7 7v14.381h12.051c14.06 0 25.579 11.501 25.579 25.579v160.195c0 14.06-11.519 25.579-25.579 25.579h-12.929v106.824c0 21.361-17.317 38.678-38.678 38.678h-125.826c.534 23.11 6.36 47.595 13.597 63.176h26.371c14.461 0 26.294 11.832 26.294 26.294s-11.833 26.294-26.294 26.294h-206.393c-14.462 0-26.294-11.832-26.294-26.294s11.832-26.294 26.294-26.294h26.299c7.052-15.592 12.37-40.075 12.681-63.176zm94.751-316.811h-219.589c-13.653 0-24.705 11.052-24.705 24.704v215.063h61.985c-.685-4.816.326-9.887 3.212-14.293 2.325-3.56 5.156-5.923 8.637-7.261 2.477-.952 5.413-1.374 8.962-1.07l-.005-52.235h-29.945c-3.866 0-7-3.134-7-7v-64.271c0-3.866 3.134-7 7-7h109.415c3.866 0 7 3.134 7 7v64.271c0 3.866-3.134 7-7 7h-42.645l-.018 15.506c1.442-.383 2.946-.588 4.487-.586 4.298.001 8.265 1.497 11.408 3.99 3.148-2.5 7.126-3.995 11.434-3.99 4.303.001 8.271 1.496 11.412 3.988 3.148-2.499 7.124-3.993 11.431-3.988 10.134.003 18.409 8.285 18.417 18.401l.279 34.336v.077c-.007 2.405-.176 4.784-.5 7.125h239.526v-68.458h-157.619c-14.06 0-25.579-11.519-25.579-25.579zm-244.294 253.767v24.366c0 13.63 11.054 24.678 24.705 24.678h378.109c13.629 0 24.678-11.049 24.678-24.678v-24.366h-243.458c-8.309 19.128-27.514 32.906-50.872 31.566-33.492-1.917-35.111-11.558-62.662-31.566zm281.923-279.811h-12.05c-6.365 0-11.579 5.206-11.579 11.579v15.599h207.706v-15.599c0-6.373-5.214-11.579-11.579-11.579h-12.051v13.975c0 3.866-3.134 7-7 7h-23.882c-3.866 0-7-3.134-7-7v-13.975h-23.394v13.975c0 3.866-3.134 7-7 7h-23.895c-3.866 0-7-3.134-7-7v-13.975h-23.394v13.975c0 3.866-3.134 7-7 7h-23.882c-3.866 0-7-3.134-7-7zm-23.629 41.178v130.596c0 6.365 5.214 11.579 11.579 11.579h184.548c6.365 0 11.579-5.214 11.579-11.579v-130.596zm17.088 364.853c-6.717-17.01-11.895-40.697-12.394-63.176h-99.448c-.301 22.486-5.054 46.173-11.546 63.176zm41.574 14h-206.393c-6.762 0-12.294 5.532-12.294 12.294s5.532 12.294 12.294 12.294h206.393c6.761 0 12.294-5.532 12.294-12.294s-5.533-12.294-12.294-12.294zm-220.168-256.793.009 88.622c0 2.249-1.08 4.361-2.904 5.677s-4.168 1.675-6.303.967c-5.573-1.851-8.656-2.418-10.674.672l-.006.011c-2.006 3.059-1.218 7.092 1.736 9.238 24.554 17.817 25.521 27.27 55.317 28.975 22.995 1.319 40.424-17.413 40.503-38.72l-.279-34.32c0-.023 0-.045 0-.067.003-2.431-1.987-4.421-4.422-4.421h-.01c-2.422-.003-4.408 1.974-4.411 4.399v.013.02c-.006 3.862-3.138 6.99-7 6.99s-6.995-3.128-7-6.99v-.02-.013c-.004-2.42-1.993-4.399-4.422-4.399h-.01c-2.422-.003-4.408 1.974-4.411 4.399v.013.02c-.006 3.862-3.138 6.99-7 6.99s-6.995-3.128-7-6.99v-.02-.013c-.004-2.42-1.996-4.399-4.422-4.399h-.01c-2.483-.003-4.476 2.245-4.492 4.728v.051.039c-.005 3.858-3.131 6.985-6.989 6.991-3.859.006-6.995-3.111-7.011-6.97 0-.012.072-61.456.072-61.456-.001-2.436-1.991-4.432-4.427-4.439-2.433.003-4.434 1.988-4.434 4.422zm22.845 13.714h35.628v-50.271h-95.415v50.271h22.943l-.001-13.714c0-10.131 8.308-18.422 18.439-18.422h.01c10.129.015 18.412 8.312 18.412 18.44v.008zm196.867-52.419c-7.745-6.653-8.632-18.343-1.979-26.088s18.343-8.632 26.088-1.979c0 0 12.015 10.321 12.015 10.321l30.813-27.436c7.626-6.79 19.329-6.111 26.119 1.514 6.79 7.626 6.112 19.329-1.514 26.119l-42.897 38.196c-6.919 6.161-17.329 6.254-24.357.217zm9.122-10.62 24.289 20.864c1.709 1.468 4.241 1.446 5.924-.053l42.897-38.195c1.855-1.652 2.02-4.499.368-6.354-1.651-1.855-4.498-2.02-6.353-.368l-35.385 31.507c-2.618 2.331-6.557 2.367-9.216.082l-16.659-14.31c-1.884-1.618-4.728-1.402-6.346.482s-1.403 4.727.481 6.345zm-19.817-135.294h-9.882v28.356h9.882zm51.394 0v28.356h9.895v-28.356zm-160.883 332.714c-3.863 0-7-3.136-7-7 0-3.863 3.137-7 7-7h34.86c3.863 0 7 3.137 7 7 0 3.864-3.137 7-7 7zm222.172-332.714v28.356h9.882v-28.356z"/></g></svg>