<svg height="512" viewBox="0 0 48 48" width="512" xmlns="http://www.w3.org/2000/svg"><g id="Слой_2" data-name="Слой 2"><g id="_1" data-name="1"><path d="m34.57 28.86h7.15v18.58h-7.15z" fill="#e78251" transform="matrix(.707 -.707 .707 .707 -15.8 38.15)"/><path d="m38.11 37.4h7.15v8.57h-7.15z" fill="#f4c08e" transform="matrix(.707 -.707 .707 .707 -17.27 41.68)"/><path d="m36.09 35.38h7.15v8.57h-7.15z" fill="#feb166" transform="matrix(.707 -.707 .707 .707 -16.43 39.66)"/><path d="m42.19 48a.76.76 0 0 1 -.54-.22l-13.13-13.14a.75.75 0 0 1 0-1.07l5.05-5.05a.75.75 0 0 1 1.07 0l13.14 13.13a.78.78 0 0 1 0 1.08l-5.05 5.05a.76.76 0 0 1 -.54.22zm-12.07-13.89 12.07 12.06 4-4-12.08-12.05z" fill="#2c3d60"/><path d="m32.48 5.42a19.19 19.19 0 0 1 -27.06 27.06 19.19 19.19 0 1 0 27.06-27.06z" fill="#e78251"/><path d="m37.14 17.94a19.14 19.14 0 0 0 -4.66-12.52 19.19 19.19 0 0 0 -27.06 27.06 19.19 19.19 0 0 0 31.72-14.54z" fill="#feb166"/><path d="m7.44 34.5a19.19 19.19 0 0 1 27.06-27.06 19.19 19.19 0 1 0 -27.06 27.06z" fill="#f4c08e"/><path d="m20 39.92a20 20 0 1 1 20-20 20 20 0 0 1 -20 20zm0-38.4a18.44 18.44 0 1 0 18.4 18.48 18.46 18.46 0 0 0 -18.4-18.48z" fill="#2c3d60"/><path d="m38.15 44a.79.79 0 0 1 -.54-.22.78.78 0 0 1 0-1.08l5-5a.78.78 0 0 1 1.08 0 .77.77 0 0 1 0 1.07l-5.06 5.06a.77.77 0 0 1 -.48.17z" fill="#2c3d60"/><path d="m33.6 20a13.64 13.64 0 1 0 -13.6 13.6 13.64 13.64 0 0 0 13.6-13.6z" fill="#dfebf7"/><path d="m28.44 9.29a13.63 13.63 0 0 1 -19.15 19.15 13.63 13.63 0 1 0 19.15-19.15z" fill="#bac4d3"/><path d="m11.47 30.63a13.63 13.63 0 0 1 19.16-19.16 13.64 13.64 0 1 0 -19.16 19.16z" fill="#fff"/><path d="m20 34.36a14.4 14.4 0 1 1 14.36-14.36 14.42 14.42 0 0 1 -14.36 14.36zm0-27.29a12.89 12.89 0 1 0 12.84 12.93 12.9 12.9 0 0 0 -12.84-12.93z" fill="#2c3d60"/><path d="m38.41 3.92-15.29 15.3-6.7-6.7a1.38 1.38 0 0 0 -2 0l-2.68 2.67a1.4 1.4 0 0 0 0 2l9.38 9.37a2.77 2.77 0 0 0 3.93 0l18-18a1.38 1.38 0 0 0 0-2l-2.67-2.64a1.4 1.4 0 0 0 -1.97 0z" fill="#5aa874"/><path d="m21.47 22.22a2.32 2.32 0 0 0 3.29 0l17-17-1.38-1.3a1.4 1.4 0 0 0 -2 0l-15.26 15.3-6.7-6.7a1.38 1.38 0 0 0 -2 0l-2.68 2.67a1.4 1.4 0 0 0 0 2l1.34 1.34 1.92-1.94a.57.57 0 0 1 .82 0z" fill="#77d982"/><path d="m23.12 28.1a3.5 3.5 0 0 1 -2.51-1l-9.37-9.37a2.15 2.15 0 0 1 0-3l2.67-2.73a2.15 2.15 0 0 1 3 0l6.17 6.17 14.8-14.79a2.17 2.17 0 0 1 3 0l2.67 2.67a2.16 2.16 0 0 1 0 3.05l-18 18a3.5 3.5 0 0 1 -2.43 1zm-7.69-15.23a.64.64 0 0 0 -.45.18l-2.67 2.67a.63.63 0 0 0 0 .9l9.37 9.38a2.07 2.07 0 0 0 2.87 0l18-18a.64.64 0 0 0 0-.89l-2.7-2.65a.63.63 0 0 0 -.9 0l-15.3 15.29a.72.72 0 0 1 -.53.23.73.73 0 0 1 -.54-.23l-6.7-6.7a.66.66 0 0 0 -.45-.18z" fill="#2c3d60"/></g></g></svg>