<svg id="Layer_1" viewBox="0 0 512 512" xmlns="http://www.w3.org/2000/svg" data-name="Layer 1"><path d="m464.273 318.274h-100.313a19.678 19.678 0 0 0 -19.6 19.6v33.526a19.678 19.678 0 0 0 19.6 19.6h100.313zm-42.886-109.2h4.313c21.217 0 38.577 15.9 38.577 35.34v60.364h-100.317a33.173 33.173 0 0 0 -33.095 33.1v33.522a33.175 33.175 0 0 0 33.095 33.1h100.313v56.151a33.831 33.831 0 0 1 -11.153 24.8 40.23 40.23 0 0 1 -27.42 10.535h-339.395a40.23 40.23 0 0 1 -27.425-10.544 33.835 33.835 0 0 1 -11.153-24.8v-261c6.807 5.748 16.217 9.428 28.212 9.428zm-321.654-13.49a93.583 93.583 0 0 1 -24.4-49.71c-13.24.188-21.627 6.554-25.236 14.667a25.586 25.586 0 0 0 0 20.372c3.663 8.236 12.251 14.671 25.841 14.671zm95.642-91.624a6.718 6.718 0 1 1 -12.018 6.008 13.425 13.425 0 0 0 -7.2-6.048 20.287 20.287 0 0 0 -11.733-.92 19.657 19.657 0 0 0 -2.054.543 14.482 14.482 0 0 0 -7.485 5.3 8.305 8.305 0 0 0 -1.418 6.5 8.874 8.874 0 0 0 .225.878c2.148 6.457 8.768 7.586 15.389 8.715 10.587 1.8 21.177 3.611 25.9 17.8a21.959 21.959 0 0 1 .646 2.3 21.479 21.479 0 0 1 -3.473 16.881 28 28 0 0 1 -14.392 10.463c-1.09.363-2.112.657-3.056.877v9.931a6.747 6.747 0 1 1 -13.494 0v-9.607a32.776 32.776 0 0 1 -6.463-1.838 26.8 26.8 0 0 1 -14.206-12.531 6.718 6.718 0 0 1 12.017-6.012 13.421 13.421 0 0 0 7.2 6.048 20.281 20.281 0 0 0 11.713.922 20.37 20.37 0 0 0 2.078-.543 14.483 14.483 0 0 0 7.486-5.3 8.3 8.3 0 0 0 1.418-6.5c-.083-.384-.158-.677-.224-.877-2.155-6.475-8.785-7.606-15.411-8.735-10.583-1.8-21.162-3.609-25.879-17.781a22.413 22.413 0 0 1 -.646-2.3 21.478 21.478 0 0 1 3.474-16.88 28 28 0 0 1 14.389-10.463c1.06-.352 2.082-.644 3.059-.871v-10.5a6.747 6.747 0 1 1 13.494 0v10.17a32.933 32.933 0 0 1 6.463 1.838 26.8 26.8 0 0 1 14.206 12.532zm163.77-64.439a80.265 80.265 0 1 0 23.508 56.755 80.012 80.012 0 0 0 -23.508-56.755zm-118.966 126.9a80.909 80.909 0 0 1 -24.116 29.166h-96.207a80.673 80.673 0 0 1 -23.246-27.447 79.681 79.681 0 0 1 -8.584-29.5c0-.075-.012-.15-.02-.224q-.306-3.516-.306-7.116a80.256 80.256 0 0 1 126.138-65.9 93.875 93.875 0 0 0 22.262 97.171q1.983 1.983 4.083 3.847zm141.79-20.548h18.041a15.758 15.758 0 0 1 10.591 3.908 11.707 11.707 0 0 1 4.039 8.661v37.145h-178.45q2.661-2.823 5.086-5.86a93.506 93.506 0 0 0 9.77-14.99 93.825 93.825 0 0 0 130.923-28.867zm-52.162-76.941a6.718 6.718 0 0 1 -12.018 6.009 13.421 13.421 0 0 0 -7.2-6.048 20.29 20.29 0 0 0 -11.738-.917 19.632 19.632 0 0 0 -2.053.543 14.482 14.482 0 0 0 -7.485 5.3 8.308 8.308 0 0 0 -1.419 6.5 9.026 9.026 0 0 0 .225.878c2.148 6.457 8.768 7.586 15.389 8.714 10.587 1.8 21.178 3.611 25.9 17.8a22.46 22.46 0 0 1 .646 2.3 21.48 21.48 0 0 1 -3.474 16.881 28 28 0 0 1 -14.392 10.464c-1.091.363-2.112.657-3.056.876v9.931a6.747 6.747 0 1 1 -13.493 0v-9.606a32.836 32.836 0 0 1 -6.464-1.839 26.8 26.8 0 0 1 -14.206-12.531 6.718 6.718 0 0 1 12.017-6.009 13.421 13.421 0 0 0 7.2 6.048 20.281 20.281 0 0 0 11.713.922 20.5 20.5 0 0 0 2.077-.542 14.49 14.49 0 0 0 7.488-5.3 8.3 8.3 0 0 0 1.417-6.5 8.686 8.686 0 0 0 -.224-.877c-2.155-6.475-8.784-7.605-15.411-8.735-10.582-1.8-21.162-3.608-25.879-17.781a22.472 22.472 0 0 1 -.646-2.3 21.484 21.484 0 0 1 3.479-16.887 28 28 0 0 1 14.39-10.463q1.592-.528 3.059-.871v-10.5a6.747 6.747 0 0 1 13.493 0v10.171a32.776 32.776 0 0 1 6.458 1.837 26.8 26.8 0 0 1 14.207 12.531zm61.831 278.745a9.848 9.848 0 1 1 -6.962-2.883 9.813 9.813 0 0 1 6.962 2.883zm-6.962-16.377a23.34 23.34 0 1 1 -16.5 6.836 23.266 23.266 0 0 1 16.5-6.836z" fill-rule="evenodd"/></svg>