<svg width="229" height="195" viewBox="0 0 229 195" fill="none" xmlns="http://www.w3.org/2000/svg">
<path fill-rule="evenodd" clip-rule="evenodd" d="M108.634 102.796C122.528 109.192 138.43 110.342 155.963 107.22L160.905 118.131C138.967 119.559 118.934 118.098 102.135 111.739L108.634 102.794V102.796Z" fill="#FFB83A"/>
<path fill-rule="evenodd" clip-rule="evenodd" d="M101.903 109.448C101.903 109.448 88.383 108.209 80.807 112.284C66.5069 119.976 59.5049 175.551 59.5049 175.551C79.9171 185.937 134.744 193.817 155.305 186.444C162.152 191.793 179.14 192.645 186.453 188.414C186.453 188.414 190.768 139.694 186.11 128.92C181.452 118.146 164.812 117.615 164.812 117.615L101.902 109.448H101.903Z" fill="#FFC764"/>
<path fill-rule="evenodd" clip-rule="evenodd" d="M77.6471 181.247C82.5622 173.3 93.7438 172.013 91.7283 171.212C87.1482 169.395 79.6297 175.575 80.4282 171.701C81.5411 166.307 87.2016 162.887 85.554 161.273C83.2486 159.015 81.9538 159.096 82.6581 156.479C84.5777 149.351 92.587 147.546 91.3878 147.282C88.2538 146.593 86.5737 145.031 89.725 130.749C86.8086 135.436 85.0631 145.954 83.3373 149.715C81.6115 153.477 78.7143 150.48 77.9597 153.995C77.2051 157.51 79.361 158.879 78.6599 161.628C77.9588 164.377 73.6392 159.125 72.4961 162.231C71.353 165.337 75.6694 170.86 74.9747 173.669C74.28 176.478 67.0947 180.621 67.0947 180.621C67.0947 180.621 72.5857 180.986 77.6489 181.247H77.6471Z" fill="#FFB83A"/>
<path fill-rule="evenodd" clip-rule="evenodd" d="M162.197 140.958C162.197 140.958 164.516 146.44 164.447 151.269C164.377 156.183 162.048 160.198 163.532 161.967C165.017 163.737 170.211 158.016 172.686 159.987C175.003 161.83 163.288 161.17 161.717 166.139C161.113 168.053 166.009 165.079 166.818 167.28C167.687 169.639 162.741 167.809 159.333 179.301C158.585 182.043 158.032 184.822 157.675 187.621C156.873 187.178 156.107 186.689 155.382 186.158C154.322 186.514 152.517 187.006 151.662 187.208C152.489 184.991 155.227 181.252 154.525 177.689C153.713 173.563 145.846 170.689 147.101 169.772C151.415 166.613 156.4 172.775 156.786 169.028C157.603 161.092 147.635 157.539 150.213 155.885C154.326 153.247 159.478 160.445 160.761 157.232C162.435 153.045 163.258 147.933 162.201 140.959L162.197 140.958Z" fill="#FFB83A"/>
<path fill-rule="evenodd" clip-rule="evenodd" d="M161.284 77.2567C165.846 70.8317 169.336 63.8953 171.653 56.6479C177.676 58.3901 182.281 52.8649 177.955 47.5726C184.54 45.2369 185.333 37.1748 177.86 35.2174C182.744 32.1536 181.428 25.3317 175.663 24.5911C178.81 18.8406 173.108 12.9184 165.804 15.0205C168.101 7.89559 156.399 2.78659 151.097 9.21418C147.823 1.63531 136.844 2.77918 134.369 8.76841C128.701 3.75145 120.665 7.40107 120.883 13.0783C113.942 10.0028 107.864 15.4686 110.236 21.1037C102.425 21.5518 101.054 29.112 105.672 33.2187C101.435 35.7482 103.055 41.8872 107.763 43.0599L161.283 77.2567H161.284Z" fill="#29263B"/>
<path fill-rule="evenodd" clip-rule="evenodd" d="M98.6241 109.476C90.1047 111.306 105.246 127.584 120.471 134.404C146.547 134.71 175.688 121.27 168.042 117.971C156.498 112.99 104.472 108.221 98.6222 109.476H98.6241Z" fill="#FFB83A"/>
<path fill-rule="evenodd" clip-rule="evenodd" d="M110.473 33.9621C100.759 47.295 94.9984 70.6065 102.577 83.9601C106.919 91.6041 119.573 95.3516 119.488 95.2443C119.403 95.1371 121.526 110.832 108.98 110.973C100.114 111.074 120.777 132.579 120.777 132.579L149.145 115.272C149.145 115.272 143.106 113.629 142.496 109.514C141.886 105.399 149.572 83.0373 149.572 83.0373C163.793 87.7891 165.769 72.3736 154.266 72.3759C154.266 72.3759 162.218 51.8229 159.446 45.3029C156.982 39.5071 113.431 29.903 110.473 33.9621Z" fill="#915839"/>
<path d="M119.29 101.181C126.551 101.006 132.682 97.6583 136.55 92.772C131.413 95.3583 125.338 96.239 119.488 95.2457C119.655 97.2249 119.589 99.2133 119.29 101.181V101.181Z" fill="#7B3711"/>
<path fill-rule="evenodd" clip-rule="evenodd" d="M108.777 102.878C105.768 102.241 98.5047 107.308 97.8379 109.732C101.928 119.806 110.284 127.387 120.51 133.876C137.566 132.779 153.669 127.188 169.25 119.145C168.656 115.518 158.878 107.06 155.671 107.211C145.898 115.869 134.32 124.082 120.936 131.848C113.845 123.162 109.564 113.579 108.777 102.878Z" fill="#FFDC9C"/>
<path fill-rule="evenodd" clip-rule="evenodd" d="M127.743 131.53L124.655 149.673L130.372 149.961L133.113 131.199L127.743 131.53Z" fill="white"/>
<path fill-rule="evenodd" clip-rule="evenodd" d="M113.458 126.789L107.597 145.852L111.593 146.743L116.432 129.012L113.458 126.789Z" fill="white"/>
<path d="M116.794 73.2091C116.717 73.2093 116.643 73.1872 116.582 73.1463C116.375 73.0059 111.5 69.6831 111.466 67.0233C111.416 63.0488 119.228 53.7056 119.56 53.3098C119.613 53.2484 119.693 53.2074 119.782 53.1956C119.87 53.1838 119.96 53.2022 120.033 53.2467C120.106 53.2912 120.156 53.3584 120.171 53.4337C120.186 53.509 120.167 53.5865 120.116 53.6495C120.036 53.745 112.102 63.2325 112.15 67.0171C112.18 69.4 116.958 72.6565 117.006 72.6893C117.062 72.7269 117.102 72.7783 117.122 72.8364C117.142 72.8945 117.14 72.9565 117.117 73.0136C117.094 73.0708 117.05 73.1204 116.992 73.1555C116.934 73.1905 116.865 73.2094 116.794 73.2095V73.2091Z" fill="#29263B"/>
<path d="M124.951 85.1371C124.866 85.137 124.784 85.1099 124.721 85.061C124.658 85.0121 124.619 84.9449 124.611 84.8727C124.398 82.9266 122.901 81.2847 120.502 80.3647C118.422 79.5675 116.4 79.58 115.646 80.0527C115.538 80.1108 115.453 80.1944 115.4 80.2931C115.348 80.3919 115.33 80.5016 115.349 80.6088C115.356 80.6474 115.354 80.6868 115.342 80.7245C115.331 80.7623 115.31 80.7977 115.283 80.8287C115.255 80.8597 115.22 80.8856 115.18 80.9049C115.141 80.9242 115.097 80.9365 115.051 80.9411C115.006 80.9457 114.96 80.9425 114.916 80.9316C114.872 80.9208 114.831 80.9025 114.796 80.8779C114.76 80.8534 114.731 80.8229 114.709 80.7885C114.688 80.7541 114.675 80.7163 114.671 80.6775C114.638 80.4678 114.675 80.2546 114.775 80.0614C114.876 79.8681 115.037 79.7024 115.241 79.5824C116.299 78.9194 118.68 79.0266 120.782 79.8323C123.412 80.8397 125.055 82.6571 125.292 84.8185C125.3 84.8955 125.272 84.9721 125.215 85.0316C125.157 85.0911 125.074 85.1286 124.984 85.136C124.973 85.1348 124.962 85.1371 124.951 85.1371Z" fill="#29263B"/>
<path d="M149.074 53.833C148.733 53.8325 148.404 53.7231 148.152 53.5261C147.9 53.3292 147.744 53.059 147.714 52.7686C147.368 49.4146 145.509 47.6811 141.864 47.3172C141.685 47.2994 141.513 47.2518 141.356 47.1772C141.199 47.1025 141.061 47.0022 140.95 46.882C140.839 46.7618 140.756 46.6241 140.707 46.4767C140.658 46.3293 140.644 46.1752 140.665 46.023C140.685 45.8708 140.741 45.7237 140.829 45.5899C140.916 45.4561 141.034 45.3384 141.175 45.2434C141.315 45.1484 141.477 45.078 141.65 45.0362C141.822 44.9944 142.003 44.982 142.181 44.9998C147.124 45.4932 149.98 48.1089 150.439 52.5639C150.455 52.7165 150.435 52.8703 150.382 53.0164C150.328 53.1626 150.241 53.2982 150.125 53.4156C150.01 53.5331 149.869 53.6299 149.709 53.7007C149.55 53.7715 149.376 53.8149 149.197 53.8283C149.155 53.8314 149.115 53.833 149.074 53.833Z" fill="#29263B"/>
<path d="M110.947 44.0165C110.698 44.0163 110.454 43.9582 110.241 43.8484C110.029 43.7387 109.855 43.5815 109.739 43.3938C109.623 43.206 109.569 42.9949 109.583 42.783C109.597 42.5711 109.679 42.3665 109.819 42.1913C112.112 39.3295 115.139 38.748 118.343 40.5557C118.64 40.7285 118.845 40.9939 118.914 41.2946C118.983 41.5953 118.911 41.9072 118.713 42.1628C118.515 42.4184 118.207 42.5972 117.855 42.6607C117.504 42.7242 117.138 42.6673 116.835 42.5022C114.902 41.4102 113.523 41.7027 112.077 43.508C111.952 43.6649 111.783 43.7933 111.586 43.882C111.389 43.9706 111.17 44.0168 110.947 44.0165V44.0165Z" fill="#29263B"/>
<path fill-rule="evenodd" clip-rule="evenodd" d="M141.836 51.3407C143.365 51.6839 143.984 53.9739 143.218 56.452C142.453 58.9301 140.592 60.6613 139.063 60.3173C137.535 59.9733 136.915 57.684 137.681 55.206C138.446 52.7279 140.309 50.9967 141.836 51.3407Z" fill="#29263B"/>
<path fill-rule="evenodd" clip-rule="evenodd" d="M114.999 45.6939C116.526 46.0371 117.147 48.3271 116.381 50.8029C115.615 53.2786 113.753 55.0149 112.226 54.6693C110.699 54.3238 110.078 52.0349 110.844 49.558C111.61 47.0811 113.47 45.3487 114.999 45.6927V45.6939Z" fill="#29263B"/>
<path d="M151.811 80.4741C151.783 80.4742 151.755 80.4712 151.727 80.4652C151.64 80.4461 151.564 80.3981 151.518 80.3317C151.472 80.2653 151.458 80.186 151.48 80.111C151.746 79.3323 152.223 78.6179 152.873 78.0256C153.522 77.4333 154.326 76.9798 155.219 76.7017C155.817 76.4888 156.468 76.408 157.112 76.4665C157.756 76.5251 158.372 76.7212 158.904 77.0367C158.974 77.0831 159.021 77.1515 159.034 77.227C159.046 77.3026 159.024 77.3793 158.971 77.4408C158.918 77.5023 158.839 77.5436 158.75 77.5559C158.662 77.5682 158.572 77.5505 158.499 77.5066C158.056 77.2493 157.545 77.091 157.013 77.0463C156.48 77.0016 155.943 77.0719 155.45 77.2508C154.662 77.4948 153.951 77.8938 153.377 78.4155C152.802 78.9372 152.379 79.5669 152.143 80.2538C152.124 80.3167 152.082 80.3726 152.022 80.4125C151.961 80.4524 151.888 80.4741 151.811 80.4741V80.4741Z" fill="#29263B"/>
<path fill-rule="evenodd" clip-rule="evenodd" d="M52.0409 136.635C51.2973 137.156 49.7918 142.357 47.4019 150.177C46.4105 153.418 44.0618 158.541 43.3314 161.776C42.5851 165.083 42.7601 167.948 42.0974 170.575C41.0361 174.782 40.25 177.436 40.25 177.436C44.6582 182.233 67.3804 186.718 74.0802 181.07C74.0802 181.07 75.9194 176.731 76.536 174.5C76.9473 173.016 74.9363 170.727 75.5131 168.993C76.3403 166.505 75.8522 163.821 76.674 161.112C79.2362 152.664 82.1842 148.42 81.7125 146.299C80.4163 140.474 58.0177 132.454 52.04 136.635H52.0409Z" fill="#FFC764"/>
<path fill-rule="evenodd" clip-rule="evenodd" d="M76.8431 156.695C70.045 162.229 51.167 158.554 47.5427 156.565C47.1884 158.695 47.2433 162.671 48.4371 165.234C49.5212 167.564 56.8303 171.093 69.1441 171.703C69.7383 178.71 45.4741 171.375 43.3438 171.073C45.1637 176.799 63.0955 179.244 75.0003 174.733C75.7576 171.962 69.2095 174.9 73.9491 168.688C74.9719 167.347 66.1422 167.023 66.8159 162.82C67.182 160.529 75.4089 163.281 76.8431 156.695ZM70.9106 169.273C71.0774 171.548 53.8924 169.338 48.8553 158.583C56.0565 166.496 62.2957 164.649 65.0956 165.493C67.8955 166.338 65.4265 168.491 70.9106 169.273Z" fill="#FFB83A"/>
<path fill-rule="evenodd" clip-rule="evenodd" d="M78.8509 143.649C80.393 144.461 81.3445 147.421 79.445 147.348C77.1685 147.259 75.0117 144.66 71.3553 144.546C67.6989 144.433 53.0011 142.284 53.0107 137.133C58.5182 134.013 72.7922 139.091 74.8965 141.446C77.913 144.824 78.8481 145.733 78.8481 143.649H78.8509Z" fill="#F8C500"/>
<path fill-rule="evenodd" clip-rule="evenodd" d="M77.7131 97.5429C84.1314 90.6965 98.3259 78.3549 103.273 83.1422C107.44 87.1756 95.1874 93.2822 92.334 97.8144C94.4917 96.9891 98.5499 100.372 95.941 104.483C99.809 104.94 101.569 109.633 99.7716 112.099C103.526 113.185 103.282 119.311 101.672 121.041C98.7204 124.211 94.7207 125.532 90.0579 123.55C87.1543 132.633 83.9536 137.39 77.48 137.629C76.8858 137.553 74.4356 141.611 73.3665 143.228C65.5793 143.84 54.9932 140.172 55.3547 137.261C55.3547 137.261 69.366 106.454 77.7153 97.5453L77.7131 97.5429Z" fill="#915939"/>
<path d="M90.0762 123.82C90.0216 123.819 89.9678 123.808 89.9195 123.786C89.8711 123.765 89.8295 123.733 89.7981 123.695C89.7668 123.657 89.7466 123.613 89.7394 123.567C89.7321 123.52 89.7379 123.473 89.7563 123.43C90.9538 120.586 93.2212 119.032 95.6824 119.374C95.7267 119.38 95.7692 119.393 95.8074 119.413C95.8456 119.434 95.8787 119.46 95.9049 119.491C95.9312 119.522 95.95 119.557 95.9602 119.595C95.9705 119.632 95.9721 119.671 95.9649 119.709C95.9576 119.746 95.9417 119.783 95.9181 119.815C95.8944 119.848 95.8635 119.876 95.8271 119.898C95.7906 119.921 95.7493 119.937 95.7056 119.946C95.6619 119.954 95.6166 119.956 95.5723 119.95C93.4607 119.657 91.4785 121.066 90.3994 123.628C90.3753 123.684 90.3313 123.733 90.2735 123.767C90.2156 123.802 90.1467 123.82 90.0762 123.82V123.82Z" fill="#29263B"/>
<path fill-rule="evenodd" clip-rule="evenodd" d="M53.4474 21.6243C53.4186 16.6 57.9927 12.2382 68.2306 12.065C78.4685 11.8919 85.3023 17.364 84.0788 21.6013C82.4828 27.1296 71.3596 28.6822 71.5401 34.5138C71.568 35.4011 64.7954 35.3207 64.7954 34.4335C64.6396 28.626 78.149 25.818 78.3533 21.4929C78.5316 17.7017 74.9026 15.6464 68.2859 15.6464C63.6889 15.6464 59.825 17.667 59.4864 21.5791C59.4288 22.4059 53.4533 22.4523 53.4474 21.6243V21.6243Z" fill="#E1B100"/>
<path fill-rule="evenodd" clip-rule="evenodd" d="M68.1298 37.27C70.7099 37.27 72.8045 38.4533 72.8045 39.9123C72.8045 41.3713 70.7099 42.5541 68.1298 42.5541C65.5498 42.5541 63.4561 41.3705 63.4561 39.9123C63.4561 38.4541 65.5507 37.27 68.1298 37.27Z" fill="#E1B100"/>
</svg>
