<svg id="Capa_1" enable-background="new 0 0 512 512" height="512" viewBox="0 0 512 512" width="512" xmlns="http://www.w3.org/2000/svg"><g><g><path d="m40.632 206.3c-18.299 0-33.132-14.834-33.132-33.133v-132.534c0-18.299 14.833-33.133 33.132-33.133h314.752c18.298 0 33.132 14.834 33.132 33.133v132.533c0 18.299-14.834 33.133-33.132 33.133h-314.752z" fill="#e0f4ff"/><path d="m57.198 173.167c-9.149 0-16.566-7.417-16.566-16.567v-99.4c0-9.15 7.417-16.567 16.566-16.567h264.619c9.149 0 16.566 7.417 16.566 16.567v99.4c0 9.149-7.417 16.567-16.566 16.567z" fill="#7fe881"/><g><g><path d="m186.892 143.114-35.624-30.198c-3.586-3.036-3.932-8.444-.761-11.911l11.419-12.49c2.902-3.174 7.751-3.599 11.161-.978l14.092 11.154c1.569 1.206 3.771 1.134 5.258-.172l30.45-26.751c3.416-3.002 8.613-2.688 11.643.702l11.059 12.371c3.06 3.423 2.752 8.683-.688 11.725l-52.588 46.49c-1.542 1.362-3.85 1.387-5.421.058z" fill="#f1f7fb"/></g></g><path d="m338.818 40.633h-23c9.149 0 16.566 7.417 16.566 16.567v99.4c0 9.149-7.417 16.567-16.566 16.567h23c9.149 0 16.566-7.417 16.566-16.567v-99.4c-.001-9.149-7.417-16.567-16.566-16.567z" fill="#5bc980"/><g><path d="m472.334 280.864c-11.646-.332-21.984 5.35-28.144 14.167-.609.871-1.609 1.382-2.672 1.382-1.814 0-3.285-1.471-3.285-3.285v-11.632c0-17.471-14.248-33.015-31.703-33.749-11.787-.496-22.283 5.17-28.533 14.042-.519.736-1.26 1.318-2.139 1.512-2.015.445-3.934-.908-4.193-2.855-2.13-16.009-15.384-28.829-31.9-29.282-13.73-.377-25.637 7.603-31.014 19.223-.264.571-.824.945-1.452.945-.883 0-1.598-.716-1.598-1.598v-92.477c0-18.579-15.204-34.137-33.779-33.782-18.001.344-32.487 15.044-32.487 33.127v132.533h-16.567c-18.299 0-33.133 14.834-33.133 33.133v66.267c0 64.047 51.92 115.967 115.966 115.967h82.833c64.046 0 115.966-51.92 115.966-115.967v-73.879c0-17.715-14.46-33.288-32.166-33.792z" fill="#ffbfab"/><g><g><path d="m472.298 280.863c-4.404-.121-8.616.627-12.489 2.07 12.738 4.805 21.691 17.385 21.691 31.74v73.861c0 64.047-51.92 115.967-115.966 115.967h23c64.046 0 115.966-51.92 115.966-115.967v-73.861c0-18.054-14.155-33.315-32.202-33.81z" fill="#f89580"/></g></g></g></g><g><path d="m472.505 273.366c-9.857-.273-19.235 2.934-26.769 9.084v-.91c0-22.179-17.717-40.71-39.495-41.307-10.892-.311-21.198 3.645-29.078 11.117-5.476-15.679-20.078-27.214-37.186-27.684-9.855-.28-19.233 2.942-26.769 9.096v-18.962h42.192c22.404 0 40.632-18.228 40.632-40.633v-132.534c0-22.405-18.227-40.633-40.632-40.633h-314.768c-22.405 0-40.632 18.228-40.632 40.633v132.533c0 22.406 18.227 40.634 40.632 40.634h27.855c4.142 0 7.5-3.358 7.5-7.5s-3.358-7.5-7.5-7.5h-27.855c-14.134 0-25.632-11.499-25.632-25.633v-132.534c0-14.134 11.498-25.633 25.632-25.633h314.768c14.133 0 25.632 11.499 25.632 25.633v132.533c0 14.134-11.499 25.633-25.632 25.633h-42.193v-18.133h25.627c13.27 0 24.066-10.796 24.066-24.066v-99.4c0-13.271-10.796-24.067-24.066-24.067h-281.636c-13.27 0-24.066 10.796-24.066 24.067v99.4c0 13.27 10.796 24.066 24.066 24.066h174.745v18.134h-128.778c-4.142 0-7.5 3.358-7.5 7.5s3.358 7.5 7.5 7.5h128.778v22.767c0 4.142 3.358 7.5 7.5 7.5s7.5-3.358 7.5-7.5v-79.967c0-14.134 11.499-25.633 25.632-25.633s25.632 11.499 25.632 25.633v147.988c0 4.142 3.358 7.5 7.5 7.5s7.5-3.358 7.5-7.5v-40.305c0-6.98 2.756-13.505 7.76-18.375 5.002-4.866 11.587-7.426 18.598-7.249 13.733.377 24.906 12.181 24.906 26.313v32.444c0 4.142 3.358 7.5 7.5 7.5s7.5-3.358 7.5-7.5v-16.566c0-6.98 2.756-13.506 7.76-18.375 5.001-4.866 11.596-7.424 18.598-7.249 13.733.377 24.906 12.181 24.906 26.313v32.444c0 4.142 3.358 7.5 7.5 7.5s7.5-3.358 7.5-7.5c0-6.98 2.756-13.506 7.76-18.375 5.001-4.865 11.613-7.431 18.598-7.249 13.734.378 24.907 12.182 24.907 26.314v73.86c0 59.809-48.656 108.467-108.462 108.467h-82.83c-59.806 0-108.462-48.658-108.462-108.467v-66.267c0-14.134 11.499-25.633 25.632-25.633h9.066v58.767c0 4.142 3.358 7.5 7.5 7.5s7.5-3.358 7.5-7.5v-83.833c0-4.142-3.358-7.5-7.5-7.5s-7.5 3.358-7.5 7.5v10.066h-9.066c-22.404 0-40.632 18.228-40.632 40.633v66.267c0 68.08 55.385 123.467 123.462 123.467h82.83c68.077 0 123.462-55.387 123.462-123.467v-73.86c0-22.179-17.717-40.71-39.495-41.307zm-199.929-157.399c-22.405 0-40.632 18.228-40.632 40.633v9.066h-174.746c-4.999 0-9.066-4.067-9.066-9.066v-99.4c0-5 4.067-9.067 9.066-9.067h281.636c4.999 0 9.066 4.067 9.066 9.067v99.4c0 4.999-4.067 9.066-9.066 9.066h-25.627v-9.066c0-22.405-18.227-40.633-40.631-40.633z"/><path d="m240.121 67.47c-5.75-6.432-15.702-7.034-22.185-1.338l-28.345 24.902-11.849-9.379c-.028-.022-.056-.044-.085-.066-6.549-5.034-15.693-4.232-21.266 1.865l-11.419 12.49c-2.922 3.196-4.379 7.336-4.102 11.657.276 4.321 2.249 8.242 5.55 11.036l35.624 30.198c.001.001.003.002.004.003 2.158 1.826 4.839 2.736 7.52 2.736 2.765 0 5.53-.969 7.714-2.9l52.589-46.492c3.169-2.804 5.052-6.674 5.3-10.898.248-4.225-1.169-8.288-3.989-11.443zm-.188 23.475-50.41 44.566-33.409-28.32c-.169-.143-.262-.327-.276-.547-.014-.221.055-.416.204-.579l11.419-12.49c.155-.169.365-.257.578-.257.159 0 .319.049.458.149l14.027 11.104c.028.022.057.044.085.066 4.396 3.378 10.61 3.175 14.778-.485l30.45-26.751c.322-.284.816-.253 1.102.066l11.059 12.371c.144.161.21.352.198.567-.014.217-.103.398-.263.54z"/></g></g></svg>