<svg id="Capa_1" enable-background="new 0 0 511.978 511.978" height="512" viewBox="0 0 511.978 511.978" width="512" xmlns="http://www.w3.org/2000/svg"><g><path d="m69.618 7.502h372.747v465.934h-372.747z" fill="#e9f1ff"/><path d="m442.365 504.478c17.155 0 31.062-13.907 31.062-31.062v-341.665h-31.063l.001 341.685-31.062-.04v.04c-.001 17.152 13.91 31.053 31.062 31.042z" fill="#fac600"/><path d="m431.303 473.396v-299.561h-260.214l-31.063-31.062h-20.409v-135.271h-50v465.934h361.686c0-.014 0-.027 0-.04z" fill="#d7e4f7"/><path d="m100.68 38.564h124.249v124.249h-124.249z" fill="#77d4f5"/><path d="m100.68 162.813h59.387l-20.041-20.04h-20.408v-104.209h-18.938z" fill="#68b3f3"/><path d="m442.365 504.458h-372.75c-17.154 0-31.06-13.906-31.06-31.06v-310.625h93.187l31.062 31.062h248.498v279.56c0 17.156 13.908 31.063 31.063 31.063z" fill="#ffe07d"/><path d="m88.555 473.398v-310.625h-50v310.625c0 17.154 13.906 31.06 31.06 31.06h50c-17.153 0-31.06-13.906-31.06-31.06z" fill="#ffd064"/><circle cx="162.804" cy="85.158" fill="#fed2a4" r="15.531"/><path d="m193.867 131.751h-62.125v-4.552c0-14.641 11.869-26.51 26.51-26.51h9.105c14.641 0 26.51 11.869 26.51 26.51z" fill="#ff5576"/><path d="m170.57 318.114h139.78v108.777h-139.78z" fill="#82d65f"/><path d="m170.57 318.114h30v108.777h-30z" fill="#77bf51"/><circle cx="240.46" cy="362.328" fill="#77bf51" r="15.531"/><g><path d="m287.172 318.114h-31.3v-31.062c0-8.498-6.914-15.412-15.412-15.412s-15.412 6.914-15.412 15.412v31.062h-31.3v-31.062c0-25.757 20.955-46.712 46.712-46.712s46.712 20.955 46.712 46.712z" fill="#e9f1ff"/></g><g fill="#d7e4f7"><path d="m250.46 241.417c-3.223-.706-6.569-1.078-10-1.078-25.757 0-46.712 20.955-46.712 46.712v31.062h20v-31.062c0-22.326 15.744-41.043 36.712-45.634z"/><path d="m260.46 271.639c-3.813 0-7.306 1.392-10 3.694 3.31 2.829 5.412 7.033 5.412 11.718v31.062h20v-31.062c0-8.498-6.914-15.412-15.412-15.412z"/></g><g><path d="m255.991 77.126c-4.142 0-7.5-3.358-7.5-7.5 0-4.142 3.358-7.5 7.5-7.5 4.142 0 7.5 3.358 7.5 7.5 0 4.143-3.358 7.5-7.5 7.5z"/><path d="m255.991 108.189c-4.142 0-7.5-3.358-7.5-7.5 0-4.142 3.358-7.5 7.5-7.5 4.142 0 7.5 3.358 7.5 7.5 0 4.142-3.358 7.5-7.5 7.5z"/><path d="m255.991 139.251c-4.142 0-7.5-3.358-7.5-7.5 0-4.142 3.358-7.5 7.5-7.5 4.142 0 7.5 3.358 7.5 7.5 0 4.142-3.358 7.5-7.5 7.5z"/><g><path d="m473.427 124.251h-23.565v-38.281c0-4.142-3.358-7.5-7.5-7.5s-7.5 3.358-7.5 7.5v379.97h-16.06v-272.1c0-4.142-3.358-7.5-7.5-7.5h-170.03c-4.142 0-7.5 3.358-7.5 7.5s3.358 7.5 7.5 7.5h162.53v272.06.028.012.027c.015 8.611 2.836 16.791 8.031 23.493h-342.222c-12.991 0-23.56-10.569-23.56-23.56v-303.13l82.626.043 28.82 28.829c1.407 1.407 3.315 2.198 5.304 2.198h45.78c4.142 0 7.5-3.358 7.5-7.5s-3.358-7.5-7.5-7.5h-42.672l-16.021-16.026h75.042c4.142 0 7.5-3.358 7.5-7.5v-124.25c0-4.142-3.358-7.5-7.5-7.5h-124.25c-4.142 0-7.5 3.358-7.5 7.5v116.706h-16.059v-140.27h357.74v38.29c0 4.142 3.358 7.5 7.5 7.5s7.5-3.358 7.5-7.5v-45.79c0-4.142-3.358-7.5-7.5-7.5h-372.74c-4.142 0-7.5 3.358-7.5 7.5v147.77h-23.57c-4.142 0-7.5 3.358-7.5 7.5v310.63c0 21.262 17.298 38.56 38.56 38.56 0 0 372.58.018 372.753.018 21.263 0 38.562-17.299 38.562-38.563v-341.664c.001-4.142-3.357-7.5-7.499-7.5zm-365.247-78.187h109.249v109.249h-84.886c-.265-.029-.533-.043-.802-.043h-23.561zm357.747 427.352c0 12.845-10.331 23.322-23.12 23.558-.147-.009-.296-.013-.445-.013-6.29 0-12.205-2.452-16.657-6.904-2.609-2.609-4.531-5.721-5.675-9.116h22.332c4.142 0 7.5-3.358 7.5-7.5v-334.19h16.065z"/><path d="m193.867 139.251c4.142 0 7.5-3.358 7.5-7.5.201-13.717-5.782-28.383-18.713-34.923 2.021-3.424 3.181-7.414 3.181-11.67 0-12.7-10.332-23.031-23.031-23.031-12.7 0-23.031 10.332-23.031 23.031 0 4.256 1.16 8.246 3.181 11.67-12.931 6.54-18.914 21.206-18.713 34.923 0 4.142 3.358 7.5 7.5 7.5zm-31.062-62.125c4.428 0 8.031 3.603 8.031 8.031s-3.603 8.031-8.031 8.031-8.031-3.603-8.031-8.031 3.602-8.031 8.031-8.031zm-4.553 31.063h9.105c9.479 0 17.361 6.975 18.782 16.062h-46.669c1.421-9.087 9.302-16.062 18.782-16.062z"/><path d="m411.302 62.126h-124.249c-4.142 0-7.5 3.358-7.5 7.5s3.358 7.5 7.5 7.5h124.249c4.142 0 7.5-3.358 7.5-7.5s-3.358-7.5-7.5-7.5z"/><path d="m411.302 93.189h-124.249c-4.142 0-7.5 3.358-7.5 7.5s3.358 7.5 7.5 7.5h124.249c4.142 0 7.5-3.358 7.5-7.5s-3.358-7.5-7.5-7.5z"/><path d="m411.302 124.241h-124.249c-4.142 0-7.5 3.358-7.5 7.5s3.358 7.5 7.5 7.5h124.249c4.142 0 7.5-3.358 7.5-7.5s-3.358-7.5-7.5-7.5z"/><path d="m240.46 400.89c4.142 0 7.5-3.358 7.5-7.5v-9.285c9.029-3.118 15.531-11.702 15.531-21.777 0-12.7-10.332-23.031-23.031-23.031s-23.031 10.332-23.031 23.031c0 10.075 6.502 18.659 15.531 21.777v9.285c0 4.142 3.358 7.5 7.5 7.5zm0-46.593c4.428 0 8.031 3.603 8.031 8.031s-3.603 8.031-8.031 8.031-8.031-3.603-8.031-8.031 3.603-8.031 8.031-8.031z"/><path d="m240.46 232.839c-29.893 0-54.212 24.319-54.212 54.212v23.559h-15.677c-4.142 0-7.5 3.358-7.5 7.5v108.78c0 4.142 3.358 7.5 7.5 7.5h139.78c4.142 0 7.5-3.358 7.5-7.5v-48.22c0-4.142-3.358-7.5-7.5-7.5s-7.5 3.358-7.5 7.5v40.72h-124.78v-93.78h124.78v20.37c0 4.142 3.358 7.5 7.5 7.5s7.5-3.358 7.5-7.5v-27.87c0-4.142-3.358-7.5-7.5-7.5h-15.679v-23.559c0-29.892-24.319-54.212-54.212-54.212zm-39.212 54.212c0-21.622 17.59-39.212 39.212-39.212s39.212 17.59 39.212 39.212v23.559h-16.3v-23.559c0-12.634-10.278-22.912-22.912-22.912s-22.912 10.278-22.912 22.912v23.559h-16.3zm47.124 23.559h-15.824v-23.559c0-4.363 3.549-7.912 7.912-7.912s7.912 3.549 7.912 7.912z"/></g></g></g></svg>