<svg width="22" height="18" viewBox="0 0 22 18" fill="none" xmlns="http://www.w3.org/2000/svg">
<path d="M5.25098 0.783203C6.60427 0.783203 7.6748 1.84269 7.6748 3.11621C7.67457 4.38954 6.60412 5.44824 5.25098 5.44824C3.89802 5.44803 2.82836 4.38942 2.82812 3.11621C2.82812 1.84282 3.89788 0.78341 5.25098 0.783203Z" fill="#FED4A7" stroke="black"/>
<path d="M16.6533 0.5C18.0066 0.5 19.0771 1.55949 19.0771 2.83301C19.0769 4.10634 18.0065 5.16504 16.6533 5.16504C15.3004 5.16483 14.2307 4.10622 14.2305 2.83301C14.2305 1.55961 15.3002 0.500207 16.6533 0.5Z" fill="#FED4A7" stroke="black"/>
<path d="M16.9941 6.16504C18.6393 6.16515 19.6472 6.81001 20.2676 7.74219C20.9092 8.7065 21.1709 10.0338 21.1709 11.4248C21.1709 12.1439 21.142 12.6343 21.0586 12.9863C20.9802 13.3169 20.8631 13.4855 20.7002 13.6045C20.5128 13.7412 20.2093 13.8537 19.6738 13.9463C19.1497 14.0369 18.4703 14.0988 17.5654 14.1807C16.4267 14.1802 15.562 14.124 14.9033 14.001C14.2419 13.8774 13.8256 13.6942 13.5527 13.4717C13.0307 13.0456 12.8652 12.3335 12.8652 10.877C12.8652 9.44409 13.0175 8.28136 13.5742 7.47559C14.0999 6.7148 15.0692 6.16504 16.9941 6.16504Z" fill="#E40E0E" stroke="black"/>
<path d="M5.30078 6.73193C6.98608 6.73202 7.97628 7.27028 8.56641 8.05811C9.17782 8.87441 9.42871 10.0481 9.42871 11.4438C9.42871 12.1757 9.42757 12.7251 9.36719 13.1616C9.30795 13.5895 9.19983 13.8395 9.03711 14.0103C8.87185 14.1837 8.58819 14.3413 8.04297 14.4497C7.49648 14.5584 6.74156 14.6069 5.69043 14.6069C4.54197 14.6069 3.68301 14.558 3.03809 14.4468C2.39155 14.3352 2.00564 14.1691 1.7627 13.9692C1.53251 13.7799 1.38451 13.5219 1.29297 13.1196C1.19781 12.7014 1.17188 12.163 1.17188 11.4438C1.17188 10.011 1.32415 8.84825 1.88086 8.04248C2.40651 7.2817 3.37588 6.73193 5.30078 6.73193Z" fill="#0A66C2" stroke="black"/>
<path d="M11.5371 8.05371C13.2171 8.05374 14.0467 8.56914 14.5605 9.29785C15.1199 10.0914 15.3563 11.1923 15.6787 12.542C15.918 13.5438 15.9241 14.8719 15.6836 15.7393C15.6365 15.9091 15.499 16.0919 15.2168 16.3008C14.9351 16.5093 14.5709 16.6999 14.1523 16.9131C13.3488 17.3222 12.6158 17.4575 12.0879 17.4912C11.8238 17.508 11.6112 17.4994 11.4688 17.4873C11.3977 17.4813 11.3443 17.4737 11.3105 17.4688C11.294 17.4663 11.2821 17.4641 11.2754 17.4629C11.2721 17.4623 11.2692 17.462 11.2686 17.4619L11.2549 17.459L11.2383 17.457C9.06716 17.1621 8.20317 16.6717 7.81445 16.0928C7.6172 15.7988 7.50918 15.4357 7.45605 14.9551C7.40202 14.4661 7.4082 13.9056 7.4082 13.2188C7.40821 11.8887 7.55802 10.5916 8.13477 9.63574C8.68116 8.73025 9.65986 8.05371 11.5371 8.05371Z" fill="#F6CB53" stroke="black"/>
<path d="M11.0312 2.11035C12.6267 2.11035 13.8936 3.35998 13.8936 4.86816C13.8934 6.37619 12.6266 7.625 11.0312 7.625C9.4361 7.62479 8.17011 6.37606 8.16992 4.86816C8.16992 3.36011 9.43598 2.11056 11.0312 2.11035Z" fill="#FFDC9C" stroke="black"/>
</svg>
