<svg id="Layer_1" enable-background="new 0 0 140 140" height="512" viewBox="0 0 140 140" width="512" xmlns="http://www.w3.org/2000/svg"><g><g><g><path d="m102.3193588 66.94384c-3.3197784 0-6.0109253-2.6916809-6.0109253-6.0109215v-16.9259986c0-14.3282375-11.6568375-25.9850731-25.9850769-25.9850731h-.6467666c-14.3282433 0-25.9850769 11.6568356-25.9850769 25.9850731v16.9259987c0 3.3192406-2.6911469 6.0109215-6.0109253 6.0109215-3.3197746 0-6.0109215-2.6916809-6.0109215-6.0109215v-16.9259987c0-20.9571171 17.0498047-38.0069199 38.0069237-38.0069199h.6467667c20.9571228 0 38.0069199 17.0498028 38.0069199 38.0069199v16.9259987c-.0000001 3.3192405-2.691147 6.0109214-6.0109178 6.0109214z" fill="#9b9fb1"/></g></g><g><path d="m70.3233643 6h-.6467896c-20.9570923 0-38.006897 17.0498047-38.006897 38.0068359v16.9260254c0 1.7758789.7749634 3.3671875 1.9997559 4.4676514v-21.3936768c0-19.8544921 16.152832-36.0068359 36.0073242-36.0068359h.6464844c19.8540039 0 36.0068359 16.1523438 36.0068359 36.0068359v21.394043c1.2250977-1.1003418 2.0001831-2.6918945 2.0001831-4.4680176v-16.9260254c0-20.9570312-17.0498047-38.0068359-38.0068969-38.0068359z" fill="#c3c5d0"/></g><g><path d="m98.3085938 44.0068359c0-15.4316406-12.5541992-27.9853516-27.9853516-27.9853516h-.6464844c-15.4311523 0-27.9853516 12.5537109-27.9853516 27.9853516v21.394043c1.2250366-1.1005859 2.0001221-2.6918945 2.0001221-4.4680176v-16.9260254c0-14.328125 11.6567993-25.9849854 25.9850464-25.9849854h.6467896c14.3282471 0 25.9850464 11.6568604 25.9850464 25.9849854v16.9260254c0 1.776123.7750854 3.3674316 2.0001831 4.4680176z" fill="#8a8d9d"/></g><g><g><path d="m102.3193359 67.9433594c-3.8657227 0-7.0107422-3.1445313-7.0107422-7.0107422v-16.9257813c0-13.7773438-11.2084961-24.9853516-24.9853516-24.9853516h-.6464844c-13.7768555 0-24.9853516 11.2080078-24.9853516 24.9853516v16.9257813c0 3.8662109-3.1450195 7.0107422-7.0107422 7.0107422-3.8662109 0-7.0112305-3.1445313-7.0112305-7.0107422v-16.9257813c.0000002-21.508789 17.4985354-39.0068359 39.0073244-39.0068359h.6464844c21.5083008 0 39.0068359 17.4980469 39.0068359 39.0068359v16.9257813c0 3.8662109-3.1450195 7.0107422-7.0107422 7.0107422zm-32.6425781-50.921875h.6464844c14.8798828 0 26.9853516 12.1054688 26.9853516 26.9853516v16.9257813c0 2.7626953 2.2480469 5.0107422 5.0107422 5.0107422s5.0107422-2.2480469 5.0107422-5.0107422v-16.9257814c-.0000001-20.4052734-16.6010743-37.0068359-37.006836-37.0068359h-.6464844c-20.4057617 0-37.0073242 16.6015625-37.0073242 37.0068359v16.9257813c0 2.7626953 2.2480469 5.0107422 5.0112305 5.0107422 2.7626953 0 5.0107422-2.2480469 5.0107422-5.0107422v-16.9257813c0-14.8798828 12.1054687-26.9853515 26.9853515-26.9853515z" fill="#231f20"/></g></g><g><path d="m111.9515533 134h-83.9031562c-2.4143581 0-4.3715801-1.9572296-4.3715801-4.371582v-64.8473969c0-2.41436 1.957222-4.371582 4.3715801-4.371582h83.9031525c2.4143524 0 4.3715744 1.957222 4.3715744 4.371582v64.8473969c.0000037 2.4143524-1.9572182 4.371582-4.3715707 4.371582z" fill="#f2f2f3"/></g><g><path d="m80.6087341 89.5546341c0-5.8590088-4.7496948-10.6087646-10.6087646-10.6087646s-10.6087608 4.7497559-10.6087608 10.6087646c0 3.9572754 2.1709595 7.4019775 5.3827477 9.2254639l-1.607296 16.6834717h13.6666222l-1.6072999-16.6834717c3.211792-1.8234864 5.3827514-5.2681885 5.3827514-9.2254639z" fill="#9b9fb1"/><path d="m76.8334961 116.4638672h-13.6669922c-.2817383 0-.5507813-.1191406-.7402344-.328125-.1894531-.2080078-.2822266-.4873047-.2553711-.7675781l1.5473633-16.0585938c-3.3017578-2.1298828-5.3271484-5.8085938-5.3271484-9.7548828 0-6.4013672 5.2075195-11.6083984 11.6088867-11.6083984s11.6088867 5.2070313 11.6088867 11.6083984c0 3.9462891-2.0253906 7.625-5.3271484 9.7548828l1.5473633 16.0585938c.0268555.2802734-.065918.5595703-.2553711.7675781-.1894532.2089844-.4584961.328125-.7402344.328125zm-12.565918-2h11.4648438l-1.5019531-15.5878906c-.0375977-.3925781.1586914-.7705078.5019531-.9658203 3.0078125-1.7070313 4.8764648-4.9091797 4.8764648-8.3554688 0-5.2978516-4.3105469-9.6083984-9.6088867-9.6083984s-9.6088867 4.3105469-9.6088867 9.6083984c0 3.4462891 1.8686523 6.6484375 4.8764648 8.3554688.3432617.1953125.5395508.5732422.5019531.9658203z" fill="#231f20"/></g><g><path d="m111.9515381 60.4094238h-14.75c2.4143677 0 4.371582 1.9572754 4.371582 4.371582v64.8474121c0 2.4143066-1.9572144 4.371582-4.371582 4.371582h14.75c2.4143677 0 4.371582-1.9572754 4.371582-4.371582v-64.847412c0-2.4143067-1.9572143-4.3715821-4.371582-4.3715821z" fill="#d7d7d8"/></g><g><path d="m41.0731201 60.4094238h14.75c-2.4143677 0-4.371582 1.9572754-4.371582 4.371582v64.8474121c0 2.4143066 1.9572144 4.371582 4.371582 4.371582h-14.75c-2.4143677 0-4.371582-1.9572754-4.371582-4.371582v-64.847412c0-2.4143067 1.9572143-4.3715821 4.371582-4.3715821z" fill="#fff"/></g><g><path d="m111.9516602 135h-83.9033204c-2.9619141 0-5.371582-2.4091797-5.371582-5.3710938v-64.8476562c0-2.9619141 2.409668-5.3720703 5.371582-5.3720703h83.9033203c2.9619141 0 5.371582 2.4101563 5.371582 5.3720703v64.8476563c.0000001 2.961914-2.4096679 5.3710937-5.3715819 5.3710937zm-83.9033204-73.5908203c-1.8588867 0-3.371582 1.5126953-3.371582 3.3720703v64.8476563c0 1.8583984 1.5126953 3.3710938 3.371582 3.3710938h83.9033203c1.8588867 0 3.371582-1.5126953 3.371582-3.3710938v-64.8476563c0-1.859375-1.5126953-3.3720703-3.371582-3.3720703z" fill="#231f20"/></g></g></svg>