<svg width="18" height="21" viewBox="0 0 18 21" fill="none" xmlns="http://www.w3.org/2000/svg">
<path d="M0 9.33325C0 8.39044 0 7.91904 0.292893 7.62615C0.585786 7.33325 1.05719 7.33325 2 7.33325H14.5C15.4428 7.33325 15.9142 7.33325 16.2071 7.62615C16.5 7.91904 16.5 8.39044 16.5 9.33325V17.4288C16.5 17.6898 16.5 17.8204 16.4862 17.9371C16.4018 18.6527 15.939 19.2676 15.2747 19.5467C15.1663 19.5922 15.0408 19.6283 14.79 19.7005C13.7916 19.9879 13.2925 20.1316 12.7955 20.2476C9.80535 20.9455 6.69465 20.9455 3.70447 20.2476C3.20752 20.1316 2.70836 19.9879 1.71004 19.7005C1.45916 19.6283 1.33372 19.5922 1.22532 19.5467C0.561024 19.2676 0.098209 18.6527 0.013778 17.9371C0 17.8204 0 17.6898 0 17.4288V9.33325Z" fill="#F8C500"/>
<path d="M12.75 7.33333V5.5C12.75 3.01472 10.7353 1 8.25 1V1C5.76472 1 3.75 3.01472 3.75 5.5V7.33333" stroke="#F0EBF8"/>
<path d="M8.25 11C9.19137 11 10 11.8136 10 12.875C10 13.9364 9.19137 14.75 8.25 14.75C7.30863 14.75 6.5 13.9364 6.5 12.875C6.5 11.8136 7.30863 11 8.25 11Z" fill="#F0EBF8" stroke="black"/>
<path d="M8 13V16" stroke="#222222" stroke-linecap="round"/>
</svg>
