<svg width="370" height="297" viewBox="0 0 370 297" fill="none" xmlns="http://www.w3.org/2000/svg">
<path d="M211.002 155.374H159.508C115.884 155.374 80.5205 193.253 80.5205 239.978L79.3086 268.422C79.3086 283.998 91.0969 296.623 105.637 296.623H263.614C278.156 296.623 289.943 283.997 289.943 268.422L291.155 241.226C291.155 193.811 255.271 155.374 211.002 155.374Z" fill="white"/>
<path d="M0 236.311V246.481C0 258.488 9.23125 268.375 20.4406 268.375H45.7606C44.5738 263.855 44.0476 259.194 44.0476 254.25V241.114C44.0476 213.994 52.8832 189.134 67.6532 169.5H62.3782C27.9588 169.5 0 199.445 0 236.311Z" fill="white"/>
<path d="M369.251 236.311V246.481C369.251 258.488 360.02 268.375 348.81 268.375H323.49C324.677 263.855 325.203 259.194 325.203 254.25V241.114C325.203 213.994 316.368 189.134 301.598 169.5H306.873C341.292 169.5 369.251 199.445 369.251 236.311Z" fill="white"/>
<path d="M184.625 127.125C213.758 127.125 237.375 98.6671 237.375 63.5625C237.375 28.4579 213.758 0 184.625 0C155.492 0 131.875 28.4579 131.875 63.5625C131.875 98.6671 155.492 127.125 184.625 127.125Z" fill="white"/>
<path d="M296.719 141.25C314.927 141.25 329.688 122.278 329.688 98.875C329.688 75.4719 314.927 56.5 296.719 56.5C278.511 56.5 263.75 75.4719 263.75 98.875C263.75 122.278 278.511 141.25 296.719 141.25Z" fill="white"/>
<path d="M72.5312 141.25C90.7394 141.25 105.5 122.278 105.5 98.875C105.5 75.4719 90.7394 56.5 72.5312 56.5C54.3231 56.5 39.5625 75.4719 39.5625 98.875C39.5625 122.278 54.3231 141.25 72.5312 141.25Z" fill="white"/>
</svg>
