<svg width="209" height="304" viewBox="0 0 209 304" fill="none" xmlns="http://www.w3.org/2000/svg">
<path d="M99.3158 45C102.129 47.017 104.523 49.0142 106.316 52C106.316 52.99 106.316 53.98 106.316 55C107.476 55.1121 107.476 55.1121 108.66 55.2266C117.592 56.3542 122.303 58.9869 128.566 65.25C134.714 74.9119 136.127 84.7206 135.316 96C134.538 98.2969 134.538 98.2969 133.628 100.062C133.195 101.032 132.762 102.001 132.316 103C133.256 104.701 134.265 106.365 135.316 108C136.289 113.612 135.362 118.341 132.585 123.277C130.067 126.695 126.858 128.519 122.863 129.766C118.009 132.118 115.866 136.954 113.944 141.831C112.735 146.004 112.606 150.177 112.566 154.5C112.551 155.36 112.535 156.221 112.52 157.107C112.628 161.459 112.883 163.44 115.613 166.969C119.685 170.029 122.949 171.267 127.972 172.113C129.078 172.31 130.184 172.506 131.324 172.709C133.619 173.106 135.916 173.497 138.214 173.881C149.501 175.908 159.597 179.369 168.316 187C169.107 187.686 169.107 187.686 169.913 188.387C171.316 189.687 171.316 189.687 173.316 192C173.316 192.99 173.316 193.98 173.316 195C173.976 195 174.636 195 175.316 195C176.922 199.254 177.572 202.784 177.581 207.324C177.584 208.519 177.587 209.713 177.589 210.943C177.581 212.179 177.574 213.414 177.566 214.687C177.574 215.904 177.581 217.12 177.589 218.373C177.568 228.342 176.271 237.478 173.316 247C173.062 247.932 172.808 248.864 172.546 249.824C168.286 264.851 161.459 280.437 147.597 288.816C140.814 292.336 133.973 294.334 126.316 293C124.627 292.046 122.965 291.041 121.325 290.004C114 283 105.001 286.218 95.9766 286.333C92.9199 286.372 89.865 286.373 86.8081 286.365C80.3312 286.356 73.855 286.395 67.3783 286.437C59.844 286.482 52.3103 286.507 44.7758 286.493C41.768 286.496 38.7615 286.53 35.7538 286.565C33.9126 286.566 32.0713 286.566 30.2301 286.564C29.3973 286.582 28.5645 286.6 27.7065 286.619C23.5 285.5 22.5 285.5 18.3212 283.59C8.17813 270.491 16.3994 235.088 18.3158 219C19.9968 206.898 22.4047 195.214 32.5658 187.375C37.2913 184.363 42.2952 181.964 47.3783 179.625C48.1218 179.279 48.8652 178.932 49.6312 178.576C54.908 176.26 59.5663 175.399 65.3158 175C65.6458 171.7 65.9758 168.4 66.3158 165C64.3358 164.01 62.3558 163.02 60.3158 162C60.1149 158.284 60.1639 157.228 62.3158 154C61.7847 153.599 61.2536 153.198 60.7064 152.785C52.3182 146.035 50.2418 139.228 48.7084 128.798C47.9883 121.831 48.1474 114.87 48.2533 107.875C48.281 105.639 48.3057 103.404 48.3245 101.168C48.3422 99.1665 48.3696 97.165 48.3976 95.1636C48.469 91.9735 48.469 91.9735 47.3158 89C46.6558 89 45.9958 89 45.3158 89C40.8344 80.6 38.9683 73.6615 41.3783 64.125C44.1694 55.5429 50.3897 48.2985 58.3158 44C73.2027 37.7055 84.8427 37.457 99.3158 45Z" fill="#ECAA90"/>
<path d="M65.3158 175C65.2127 176.093 65.1096 177.186 65.0033 178.312C65.158 180.138 65.158 180.138 65.3158 182C66.5224 182.603 66.5224 182.603 67.7533 183.219C70.3158 185 70.3158 185 71.2416 188.793C71.3938 190.256 71.522 191.721 71.6283 193.188C71.7376 194.312 71.7376 194.312 71.849 195.459C72.0253 197.304 72.8575 197.152 73 199C73.66 199 73.6358 201 74.3158 201C75.6404 202.685 76.7495 204.467 77.9017 206.273C79.2161 208.133 79.2161 208.133 81.3549 208.949C83.9869 210.36 84.3198 211.658 85.3158 214.438C85.6445 215.332 85.9732 216.227 86.3119 217.148C86.6432 218.089 86.9745 219.03 87.3158 220C87.8282 221.381 87.8282 221.381 88.351 222.789C91.0591 230.1 93.5837 237.449 95.7533 244.938C97.2966 250.106 99.2197 255.033 101.316 260C101.569 260.617 101.822 261.235 102.082 261.871C106.542 272.88 106.542 272.88 113.249 282.617C114.316 284 114.316 284 114.316 286C102.277 286.116 90.2375 286.205 78.1978 286.259C72.6073 286.285 67.0172 286.321 61.4269 286.377C56.0323 286.432 50.638 286.461 45.2431 286.474C43.1846 286.484 41.1261 286.502 39.0677 286.529C36.1849 286.565 33.3035 286.57 30.4205 286.568C29.5689 286.586 28.7173 286.604 27.8398 286.622C23.5 285.5 22.5 285.5 18.3093 283.59C6 269.5 13.7777 236 16 220C17.681 207.898 22.4047 195.214 32.5658 187.375C41.9901 181.332 53.949 175 65.3158 175Z" fill="#EF0C0C"/>
<path d="M123.5 171C141.03 170.195 158.23 177.269 171.316 189C173.316 192 173.5 192 173.5 192L175.316 195C176.922 199.254 177.572 202.784 177.581 207.324C177.585 209.116 177.585 209.116 177.589 210.943C177.581 212.179 177.574 213.415 177.566 214.688C177.577 216.512 177.577 216.512 177.589 218.373C177.568 228.349 176.262 237.468 173.316 247C172.773 248.812 172.232 250.625 171.691 252.438C171.233 253.958 170.775 255.479 170.316 257C165.099 255.952 160.08 254.715 155.089 252.859C152.794 252.148 150.713 251.711 148.355 251.328C141.838 250.113 136.303 248.841 132.16 243.34C129.709 239.549 127.636 235.576 125.616 231.542C123.425 227.258 120.944 223.145 118.503 219C117.588 217.411 116.673 215.821 115.761 214.23C113.843 210.898 111.88 207.596 109.878 204.313C107.452 200.31 105.346 196.217 103.316 192C104.208 191.469 105.1 190.938 106.019 190.391C107.201 189.677 108.384 188.964 109.566 188.25C110.152 187.902 110.739 187.554 111.343 187.195C117.459 183.67 117.459 183.67 120.925 177.859L122 175.5C122 175.5 123.415 172.275 123.5 171Z" fill="#EF0C0C"/>
<path d="M99.3158 45C102.129 47.017 104.523 49.0142 106.316 52C106.316 52.99 106.316 53.98 106.316 55C107.476 55.1121 107.476 55.1121 108.66 55.2266C117.592 56.3542 122.303 58.9869 128.566 65.25C133.228 72.5766 135.455 80.2563 135.566 88.875C135.592 90.0687 135.617 91.2623 135.644 92.4922C135.282 96.3603 134.4 98.7367 132.316 102C129.565 102.917 127.956 103.109 125.128 103.062C123.87 103.042 122.612 103.021 121.316 103C120.656 105.31 119.996 107.62 119.316 110C117.996 110 116.676 110 115.316 110C115.287 109.417 115.259 108.835 115.23 108.234C114.345 100.63 110.645 96.2739 105.738 90.7773C99.3158 83.4129 99.3158 83.4129 99.3158 79C98.1608 79.5981 97.0058 80.1963 95.8158 80.8125C81.9344 86.8601 67.1442 86.3998 52.3158 86C51.9858 88.31 51.6558 90.62 51.3158 93C49.9958 92.34 48.6758 91.68 47.3158 91C47.3158 90.34 47.3158 89.68 47.3158 89C46.6558 89 45.9958 89 45.3158 89C40.8344 80.6 38.9683 73.6615 41.3783 64.125C44.1694 55.5429 50.3897 48.2985 58.3158 44C73.2027 37.7055 84.8427 37.457 99.3158 45Z" fill="#674C19"/>
<path d="M167.316 7C171.036 9.59343 173.482 12.2231 176 16C176.9 22.3256 177.512 28.2804 173.566 33.5625C172.513 34.7367 171.432 35.8863 170.316 37C169.573 37.825 168.831 38.65 168.066 39.5C166.316 41 164.316 43 164.316 43C164.316 42.32 164.316 43.66 164.316 43C163.635 43.5878 163.635 43.5878 162.941 44.1875C160.597 46.8014 160.14 49.6408 159.316 53C157.17 53.0269 155.024 53.0463 152.878 53.0625C151.683 53.0741 150.488 53.0857 149.257 53.0977C146.316 53 146.316 53 145.316 52C144.626 46.7341 144.957 42.33 147.898 37.7539C150.207 34.8973 152.874 32.4376 155.609 29.9922C157.626 27.6385 158.063 26.0644 158.316 23C157.36 21.0437 157.36 21.0437 155.316 20C152.19 19.7495 152.19 19.7495 149.316 20C148.635 21.7016 148.635 21.7016 147.941 23.4375C146.316 27 146.316 27 144.316 28C140.075 28.4332 136.316 28.3265 132.253 27C130.316 25 130.316 25 129.816 21.125C130.183 15.834 132.208 13.1351 135.878 9.375C144.753 2.41117 157.454 2.14993 167.316 7Z" fill="#E5A043"/>
<path d="M11.5 254C21.07 254.33 34.4558 254.66 44.3158 255C44.3158 265.23 44.3158 275.91 44.3158 286.45C40.6239 286.554 36.932 286.657 33.1283 286.763C31.3954 286.831 30.7679 286.693 29 286.763C22.5 285.5 21.6888 286.235 18.14 283.605C15.169 281.404 13.7904 279.465 12.5 276C11.4688 273.231 11.5 268.5 11.5 268.5C11.5 268.5 11.4787 258.207 11.5 254Z" fill="#E4A68C"/>
<path d="M155.316 57C158.128 58 158.5 58 160.5 60.5C161.903 64.4759 162.18 66.6363 160.5 70.5C158.75 72.625 159.5 72.5 155.5 74.5C151.5 75 148.5 74.5 145.5 72C143.68 69.161 143.318 66.8659 143.5 63.5C144.86 57.5267 149.719 56.0671 155.316 57Z" fill="#E49F3F"/>
<path d="M44.3158 259C44.6458 259 44.9758 259 45.3158 259C45.3409 259.626 45.3659 260.251 45.3917 260.896C45.5075 263.723 45.6303 266.549 45.7533 269.375C45.7926 270.36 45.8319 271.345 45.8724 272.359C45.9143 273.3 45.9562 274.241 45.9994 275.211C46.036 276.08 46.0727 276.95 46.1105 277.845C46.1898 280.048 46.1898 280.048 47.3158 282C66.1258 282.33 84.9358 282.66 104.316 283C104.316 283.33 104.316 283.66 104.316 284C94.7458 284.33 85.1758 284.66 75.3158 285C75.3158 285.33 75.3158 285.66 75.3158 286C65.0858 286 54.8558 286 44.3158 286C44.3158 277.09 44.3158 268.18 44.3158 259Z" fill="#D70606"/>
<path d="M58.3158 92C61.9458 92 65.5758 92 69.3158 92C69.1508 93.32 68.9858 94.64 68.8158 96C68.4489 99.1811 68.2902 102.238 68.3783 105.438C68.3158 109 68.3158 109 66.3158 111C66.3158 107.7 66.3158 104.4 66.3158 101C65.9858 101.33 65.6558 101.66 65.3158 102C65.3158 104.03 65.3194 106.061 65.3783 108.09C65.3158 110 65.3158 110 64.3158 112C62.9958 111.67 61.6758 111.34 60.3158 111C59.9858 107.37 59.6558 103.74 59.3158 100C60.9658 99.34 62.6158 98.68 64.3158 98C64.3158 97.34 64.3158 96.68 64.3158 96C62.6658 96 61.0158 96 59.3158 96C58.9858 94.68 58.6558 93.36 58.3158 92Z" fill="#E6AD9A"/>
<path d="M168.316 8C176.064 14.2325 175.5 14.5 176.722 18.8555C176.92 25.8947 176.518 30.2123 171.824 35.6094C170.316 37 170.316 37 168.316 38C168.316 36.02 168.316 34.04 168.316 32C169.636 32 170.956 32 172.316 32C172.415 28.1009 172.415 28.1009 171.816 24.6875C171.316 21 171.316 21 171.441 17.1875C171.4 16.1356 171.358 15.0837 171.316 14C170.326 13.34 169.336 12.68 168.316 12C168.316 10.68 168.316 9.36 168.316 8Z" fill="#D3A753"/>
<path d="M153.316 32C153.878 33.9375 153.878 33.9375 154.316 36C153.986 36.33 153.656 36.66 153.316 37C153.171 38.155 153.027 39.31 152.878 40.5C152.6 42.2325 152.6 42.2325 152.316 44C151.326 44.495 151.326 44.495 150.316 45C149.986 43.35 149.656 41.7 149.316 40C149.316 43.3 149.316 46.6 149.316 50C153.966 50.2693 153.966 50.2693 158.316 49C158.976 48.01 159.636 47.02 160.316 46C159.986 48.31 159.656 50.62 159.316 53C157.17 53.0269 155.024 53.0463 152.878 53.0625C151.683 53.0741 150.488 53.0857 149.257 53.0977C146.316 53 146.316 53 145.316 52C144.459 45.4521 145.54 41.3496 149.316 36C151.566 33.5625 151.566 33.5625 153.316 32Z" fill="#DEA35B"/>
<path d="M74.1283 152.883C81.5668 153.706 88.2555 155.656 94.2533 160.25C98.7653 166.266 99.8204 172.621 100.316 180C99.6558 180 98.9958 180 98.3158 180C98.134 179.287 97.9523 178.574 97.765 177.84C97.2434 175.852 96.6993 173.871 96.1361 171.895C95.5004 169.652 94.9265 167.391 94.3783 165.125C90.1583 158.731 81.7532 157.164 74.5658 155.688C73.1513 155.445 71.7354 155.21 70.3158 155C72.3158 153 72.3158 153 74.1283 152.883Z" fill="#BF7B5E"/>
<path d="M130.316 236C131.306 236 132.296 236 133.316 236C133.419 236.763 133.522 237.526 133.628 238.312C134.363 241.184 134.987 242.23 137.316 244C137.976 244 138.636 244 139.316 244C139.316 244.66 139.316 245.32 139.316 246C146.741 246.99 146.741 246.99 154.316 248C154.646 248.99 154.976 249.98 155.316 251C149.331 252.995 140.956 249.65 135.316 247C132.676 244.619 131.229 242.436 130.316 239C130.316 238.01 130.316 237.02 130.316 236Z" fill="#D70606"/>
<path d="M67.3158 161C70.6908 160.875 70.6908 160.875 74.3158 161C74.9758 161.66 75.6358 162.32 76.3158 163C74.0058 163.33 71.6958 163.66 69.3158 164C69.3158 165.32 69.3158 166.64 69.3158 168C70.9658 168.33 72.6158 168.66 74.3158 169C73.9858 169.99 73.6558 170.98 73.3158 172C71.6491 172 69.9825 172 68.3158 172C67.9858 173.65 67.6558 175.3 67.3158 177C68.3058 177.33 69.2958 177.66 70.3158 178C69.3258 178.33 68.3358 178.66 67.3158 179C66.3258 178.34 65.3358 177.68 64.3158 177C64.624 174.708 64.9375 172.416 65.2533 170.125C65.4273 168.849 65.6013 167.573 65.7806 166.258C66.3158 163 66.3158 163 67.3158 161Z" fill="#D59980"/>
<path d="M18.3158 256C26.5658 256 34.8158 256 43.3158 256C43.3158 265.24 43.3158 274.48 43.3158 284C42.9858 284 42.6558 284 42.3158 284C41.6558 275.09 40.9958 266.18 40.3158 257C33.0558 257 25.7958 257 18.3158 257C18.3158 256.67 18.3158 256.34 18.3158 256Z" fill="#DFB7A6"/>
<path d="M135.316 247C136.574 247.124 137.832 247.248 139.128 247.375C140.19 247.479 140.19 247.479 141.273 247.586C143.316 248 143.316 248 146.316 250C145.326 250 144.336 250 143.316 250C143.316 253.3 143.316 256.6 143.316 260C139.827 257.674 139.257 256.162 137.628 252.375C137.191 251.372 136.754 250.369 136.304 249.336C135.978 248.565 135.652 247.794 135.316 247Z" fill="#9F6148"/>
<path d="M89.3158 103C90.6358 103 91.9558 103 93.3158 103C93.3158 106.63 93.3158 110.26 93.3158 114C91.6658 113.67 90.0158 113.34 88.3158 113C88.1908 105.25 88.1908 105.25 89.3158 103Z" fill="#3B251D"/>
<path d="M64.3158 178C71.7444 177.714 71.7444 177.714 75.3158 180C75.3158 181.32 75.3158 182.64 75.3158 184C74.0577 184.041 72.7995 184.083 71.5033 184.125C70.7956 184.148 70.0879 184.171 69.3588 184.195C67.3158 184 67.3158 184 64.3158 182C64.3158 180.68 64.3158 179.36 64.3158 178Z" fill="#DBA690"/>
<path d="M62.3158 101C63.3058 101.33 64.2958 101.66 65.3158 102C65.4408 109.75 65.4408 109.75 64.3158 112C62.9958 111.67 61.6758 111.34 60.3158 111C60.1205 104.945 60.1205 104.945 60.3158 103C60.9758 102.34 61.6358 101.68 62.3158 101Z" fill="#3B2420"/>
<path d="M120.316 288C120.976 288 121.636 288 122.316 288C122.316 288.66 122.316 289.32 122.316 290C129.246 290 136.176 290 143.316 290C138.02 293.531 132.552 293.588 126.316 293C122.691 291.5 122.691 290.5 120.316 289C120.316 288.34 120.316 288.68 120.316 288Z" fill="#DCAA91"/>
<path d="M129.316 104C134.191 105.75 134.191 105.75 135.316 108C135.741 113.029 135.674 117.432 133.316 122C132.156 118.522 132.608 116.541 133.316 113C132.326 112.34 131.336 111.68 130.316 111C130.191 108.5 130.191 108.5 130.316 106C129.986 105.34 129.656 104.68 129.316 104Z" fill="#E4AC9F"/>
<path d="M76.3158 155C76.3158 155.33 76.3158 155.66 76.3158 156C70.8708 156.99 70.8708 156.99 65.3158 158C65.9758 158.66 66.6358 159.32 67.3158 160C66.9858 160.66 66.6558 161.32 66.3158 162C64.9958 161.67 63.6758 161.34 62.3158 161C62.3158 159.02 62.3158 157.04 62.3158 155C67.2864 154.087 71.3452 154.087 76.3158 155Z" fill="#E09A80"/>
<path d="M94.3158 164C95.3058 164 96.2958 164 97.3158 164C100.76 174.374 100.76 174.374 100.316 180C99.6558 180 98.9958 180 98.3158 180C97.8345 178.271 97.3558 176.542 96.8783 174.812C96.6115 173.85 96.3446 172.887 96.0697 171.895C95.387 169.273 94.8169 166.661 94.3158 164Z" fill="#D58F74"/>
<path d="M89.3158 93C91.9558 93 94.5958 93 97.3158 93C97.6458 94.32 97.9758 95.64 98.3158 97C95.6758 97 93.0358 97 90.3158 97C89.9858 95.68 89.6558 94.36 89.3158 93Z" fill="#472A16"/>
<path d="M58.3158 92C60.9558 92 63.5958 92 66.3158 92C66.3158 93.32 66.3158 94.64 66.3158 96C64.0058 96 61.6958 96 59.3158 96C58.9858 94.68 58.6558 93.36 58.3158 92Z" fill="#4B2E24"/>
<path d="M136.316 9C136.316 12.1055 135.776 13.3526 134.316 16C133.656 16 132.996 16 132.316 16C132.316 18.64 132.316 21.28 132.316 24C131.326 24.495 131.326 24.495 130.316 25C130.043 19.6286 129.911 16.4132 133.316 12C135.003 10.1875 135.003 10.1875 136.316 9Z" fill="#DBA25F"/>
<path d="M72.3158 116C73.4307 119.345 73.1209 121.601 72.3158 125C72.3158 125.66 72.3158 126.32 72.3158 127C70.9958 126.67 69.6758 126.34 68.3158 126C68.1149 122.284 68.1639 121.228 70.3158 118C70.9758 118 71.6358 118 72.3158 118C72.3158 117.34 72.3158 116.68 72.3158 116Z" fill="#D49072"/>
<path d="M138.316 248C140.956 248.33 143.596 248.66 146.316 249C145.326 249.33 144.336 249.66 143.316 250C143.316 251.65 143.316 253.3 143.316 255C142.326 254.67 141.336 254.34 140.316 254C139.128 250.938 139.128 250.938 138.316 248Z" fill="#B2735C"/>
<path d="M165.316 264C165.976 264.33 166.636 264.66 167.316 265C166.341 266.669 165.361 268.335 164.378 270C163.833 270.928 163.288 271.856 162.726 272.812C162.261 273.534 161.795 274.256 161.316 275C160.986 275 160.656 275 160.316 275C160.316 273.35 160.316 271.7 160.316 270C160.976 270 161.636 270 162.316 270C162.44 269.381 162.563 268.762 162.691 268.125C163.316 266 163.316 266 165.316 264Z" fill="#E2A79E"/>
<path d="M18.3158 228C19.3058 228.33 20.2958 228.66 21.3158 229C20.9858 230.98 20.6558 232.96 20.3158 235C19.9858 235 19.6558 235 19.3158 235C18.6558 238.3 17.9958 241.6 17.3158 245C16.2615 240.783 16.5343 238.479 17.2533 234.25C17.4479 233.08 17.6426 231.909 17.8431 230.703C17.9991 229.811 18.1551 228.919 18.3158 228Z" fill="#D70606"/>
<path d="M76.3158 163C80.8803 163.543 84.2886 164.795 88.3158 167C88.3158 167.66 88.3158 168.32 88.3158 169C86.8748 168.574 85.4381 168.134 84.0033 167.688C83.2028 167.444 82.4023 167.2 81.5775 166.949C79.2162 165.958 77.977 164.919 76.3158 163Z" fill="#D99477"/>
<path d="M84.3158 135C84.3158 135.66 84.3158 136.32 84.3158 137C81.104 138.906 78.777 139.223 75.0658 139.125C74.1738 139.107 73.2817 139.089 72.3627 139.07C71.3495 139.036 71.3495 139.036 70.3158 139C70.3158 138.67 70.3158 138.34 70.3158 138C72.2734 137.497 74.2319 136.998 76.1908 136.5C77.2813 136.222 78.3719 135.943 79.4955 135.656C82.3158 135 82.3158 135 84.3158 135Z" fill="#C37F63"/>
<path d="M131.316 123C130.316 126 130.316 126 128.066 127.688C125.179 129.065 123.464 129.27 120.316 129C120.646 128.34 120.976 127.68 121.316 127C122.966 127 124.616 127 126.316 127C126.316 126.34 126.316 125.68 126.316 125C129.316 123 129.316 123 131.316 123Z" fill="#E1A999"/>
<path d="M172.316 30C172.646 31.32 172.976 32.64 173.316 34C171.666 35.32 170.016 36.64 168.316 38C168.316 36.02 168.316 34.04 168.316 32C169.636 32 170.956 32 172.316 32C172.316 31.34 172.316 30.68 172.316 30Z" fill="#DF9E59"/>
<path d="M168.316 8C174.191 12.625 174.191 12.625 175.316 16C172.316 16 172.316 16 170.128 14.25C168.316 12 168.316 12 168.316 8Z" fill="#DAA15D"/>
<path d="M61.3158 156C61.6458 156 61.9758 156 62.3158 156C62.6458 157.65 62.9758 159.3 63.3158 161C64.3058 161.33 65.2958 161.66 66.3158 162C66.3158 162.66 66.3158 163.32 66.3158 164C64.3358 163.34 62.3558 162.68 60.3158 162C60.2731 160.334 60.2752 158.666 60.3158 157C60.6458 156.67 60.9758 156.34 61.3158 156Z" fill="#DAA898"/>
<path d="M72.3158 153C74.4799 153.023 74.4799 153.023 76.9408 153.375C78.1667 153.541 78.1667 153.541 79.4174 153.711C80.0438 153.806 80.6703 153.902 81.3158 154C80.6558 154.66 79.9958 155.32 79.3158 156C77.1517 155.977 77.1517 155.977 74.6908 155.625C73.8735 155.514 73.0563 155.403 72.2142 155.289C71.5877 155.194 70.9613 155.098 70.3158 155C70.9758 154.34 71.6358 153.68 72.3158 153Z" fill="#C78366"/>
<path d="M44.9942 256.154C44.0266 255.763 43.059 255.372 42.0621 254.969C42.5144 253.013 42.9668 251.058 43.4328 249.043C43.7622 249.063 44.0916 249.084 44.4309 249.105C45.2946 245.852 46.1583 242.6 47.0481 239.248C47.8385 243.523 47.4231 245.805 46.4428 249.982C46.1759 251.138 45.9089 252.294 45.6338 253.485C45.4228 254.366 45.2117 255.246 44.9942 256.154Z" fill="#D70606"/>
</svg>
