<svg clip-rule="evenodd" fill-rule="evenodd" height="512" image-rendering="optimizeQuality" shape-rendering="geometricPrecision" text-rendering="geometricPrecision" viewBox="0 0 4335 4335" width="512" xmlns="http://www.w3.org/2000/svg"><g id="Layer_x0020_1"><g id="_575842216"><path d="m3317 3377c-16 0-31-6-43-17l-489-490c-24-23-24-62 0-85 23-24 62-24 85 0l490 489c23 24 23 62 0 86-12 11-28 17-43 17z" fill="#34495e"/><path d="m2429 2919 490-490 191 191c40 41 40 107 0 147l-343 343c-40 40-106 40-147 0z" fill="#343e47"/><path d="m1631 0c-435 0-845 170-1153 478s-478 718-478 1153c0 436 170 846 478 1154s718 478 1153 478c436 0 846-170 1154-478s478-718 478-1154c0-435-170-845-478-1153s-718-478-1154-478z" fill="#34495e"/><path d="m1631 3057c-381 0-739-148-1008-417-269-270-418-628-418-1009s149-739 418-1008 627-418 1008-418 739 149 1009 418c269 269 417 627 417 1008s-148 739-417 1009c-270 269-628 417-1009 417z" fill="#5d6d7e"/><path d="m1631 2954c-353 0-685-138-935-388-249-249-387-582-387-935s138-685 387-935c250-249 582-387 935-387s686 138 935 387c250 250 388 582 388 935s-138 685-388 935c-249 250-582 388-935 388z" fill="#cee2f2"/><path d="m3868 4335c-15 0-31-6-43-18l-836-836c-23-23-23-62 1-85l406-407c23-22 63-22 85 0l836 836c12 12 18 27 18 43s-6 31-18 43l-406 406c-12 12-27 18-43 18z" fill="#ff8e31"/><path d="m1043 2420h-203c-28 0-51-22-51-50v-427c0-28 23-51 51-51h203c28 0 50 23 50 51v427c0 28-22 50-50 50z" fill="#ef5350"/><path d="m1503 2420h-203c-28 0-51-22-51-50v-848c0-28 23-51 51-51h203c28 0 50 23 50 51v848c0 28-22 50-50 50z" fill="#4fba6f"/><path d="m1963 2420h-203c-28 0-51-22-51-50v-592c0-27 23-50 51-50h203c28 0 50 23 50 50v592c0 28-22 50-50 50z" fill="#ffc107"/><path d="m2423 2420h-203c-28 0-50-22-50-50v-1012c0-28 22-51 50-51h203c28 0 50 23 50 51v1012c0 28-22 50-50 50z" fill="#5c9cee"/><path d="m1042 1480c-15 0-30-7-40-20-17-23-12-54 10-71l302-223c22-17 54-12 70 11 17 22 12 54-10 70l-302 223c-9 7-19 10-30 10zm716-126c-8 0-16-2-24-6l-207-112c-25-13-34-44-21-68 13-25 44-34 68-21l208 112c25 13 34 44 21 68-10 17-27 27-45 27zm206-17c-15 0-30-7-40-20-17-22-13-53 9-70l258-197c22-17 53-13 70 9s13 54-9 71l-258 197c-9 7-20 10-30 10z" fill="#3b566a"/><path d="m944 1676c-96 0-173-78-173-173 0-96 77-174 173-174 95 0 173 78 173 174 0 95-78 173-173 173z" fill="#ef5350"/><path d="m1442 1307c-95 0-173-78-173-173 0-96 78-174 173-174 96 0 174 78 174 174 0 95-78 173-174 173z" fill="#4fba6f"/><path d="m1866 1534c-95 0-173-77-173-173 0-95 78-173 173-173 96 0 173 78 173 173 0 96-77 173-173 173z" fill="#ffc107"/><path d="m2319 1189c-96 0-173-78-173-174 0-95 77-173 173-173 95 0 173 78 173 173 0 96-78 174-173 174z" fill="#5c9cee"/><path d="m2989 3481 140 140 492-492-140-140c-22-22-62-22-85 0l-161 161-85 85-160 161c-24 23-24 62-1 85z" fill="#34495e"/><rect fill="#fece59" height="738" rx="53" transform="matrix(.486 -.486 .74 .74 3575.75 3367.54)" width="106"/><path d="m2563 2420h-1863c-28 0-51-22-51-50s23-50 51-50h1863c28 0 50 22 50 50s-22 50-50 50z" fill="#3b566a"/></g></g></svg>