<svg width="297" height="180" viewBox="0 0 297 180" fill="none" xmlns="http://www.w3.org/2000/svg">
<path d="M170.004 74.8394C182.981 67.9216 191.721 54.9691 191.721 40.1522C191.721 18.0741 172.334 0.117188 148.498 0.117188C124.662 0.117188 105.276 18.0741 105.276 40.1522C105.276 54.9691 114.016 67.9216 126.993 74.8394C103.263 81.9534 83.6116 101.235 82.2344 132.733V169.138C82.2344 175.074 87.4253 179.882 93.8345 179.882H203.162C209.571 179.882 214.762 175.074 214.762 169.138V132.733C213.385 101.235 193.734 81.9534 170.004 74.8394ZM114.81 40.1522C114.81 22.9803 129.906 8.9975 148.445 8.9975C166.984 8.9975 182.08 22.9803 182.08 40.1522C182.08 57.3241 167.037 71.3069 148.498 71.3069C129.959 71.3069 114.81 57.3241 114.81 40.1522ZM205.228 169.138C205.228 170.168 204.327 171.051 203.162 171.051H93.8345C92.7222 171.051 91.7688 170.217 91.7688 169.138V132.733C91.7688 103.737 117.194 80.1872 148.498 80.1872C179.803 80.1872 205.228 103.737 205.228 132.733V169.138Z" fill="white"/>
<path d="M84.9905 90.7838C87.1092 86.6626 82.5539 83.7188 76.4095 81.7073C86.4206 75.6235 93.0947 65.1241 93.0947 53.202C93.0947 34.411 76.5684 19.1035 56.2814 19.1035C35.9944 19.1035 19.4681 34.411 19.4681 53.202C19.4681 65.2223 26.2481 75.7707 36.4181 81.8545C15.2306 89.312 0.1875 108.201 0.1875 130.377V160.698C0.1875 166.046 4.90172 170.412 10.6753 170.412H65.7628C72.0131 170.412 72.0131 161.532 65.7628 161.532H10.6753C10.1986 161.532 9.77484 161.139 9.77484 160.698V130.377C9.77484 106.68 30.4856 87.3985 56.0166 87.3004H56.2284H56.3873C64.0678 87.3495 71.6953 89.1157 78.4753 92.5501C80.8059 93.7276 83.7192 92.9426 84.9905 90.7838ZM56.4403 78.4201C56.3873 78.4201 56.2814 78.4201 56.2284 78.4201C56.1755 78.4201 56.1225 78.4201 56.1225 78.4201C41.1853 78.371 29.0025 67.0866 29.0025 53.202C29.0025 39.2682 41.2383 27.9348 56.2814 27.9348C71.3245 27.9348 83.5073 39.2682 83.5073 53.202C83.5073 67.0866 71.3775 78.322 56.4403 78.4201Z" fill="white"/>
<path d="M296.811 130.377C297.288 107.661 281.132 89.4101 260.422 82.0016C270.751 75.967 277.584 65.3204 277.584 53.202C277.584 34.411 261.057 19.1035 240.77 19.1035C220.483 19.1035 203.957 34.411 203.957 53.202C203.957 65.1732 210.631 75.6726 220.748 81.7563C218.47 82.5904 216.193 83.5716 213.968 84.7491C208.459 87.5457 213.068 95.2976 218.576 92.501C236.215 83.3754 259.574 86.4173 273.717 99.8604C282.457 107.956 287.33 118.799 287.33 130.328V160.649C287.33 161.09 286.906 161.483 286.429 161.483H231.342C225.092 161.532 225.092 170.314 231.342 170.363H286.429C292.203 170.363 296.917 165.997 296.917 160.649C296.811 160.698 296.811 130.377 296.811 130.377ZM241.035 78.4201C240.876 78.4201 240.77 78.4201 240.611 78.4201C225.674 78.322 213.544 67.0376 213.544 53.202C213.544 39.2682 225.78 27.9348 240.77 27.9348C255.813 27.9348 268.049 39.2682 268.049 53.202C267.996 67.0376 255.919 78.2729 241.035 78.4201Z" fill="white"/>
</svg>
