<svg width="512" height="512" viewBox="0 0 512 512" fill="none" xmlns="http://www.w3.org/2000/svg">
<path d="M504.5 401.214C508.643 401.214 512 397.856 512 393.714V382.22C512 361.486 498.77 343.196 479.074 336.706L432.197 321.282V305.052C448.52 295.259 459.471 277.392 459.471 257.011V224.686C459.471 193.814 434.355 168.698 403.483 168.698C385.299 168.698 369.118 177.418 358.884 190.889C353.219 180.258 343.612 171.967 331.585 168.017L284.713 152.585V136.355C301.036 126.562 311.987 108.695 311.987 88.314V55.988C311.988 25.116 286.872 0 256 0C225.128 0 200.012 25.116 200.012 55.988V88.313C200.012 108.694 210.963 126.561 227.286 136.354V152.584L180.419 168.015C168.389 171.967 158.781 180.258 153.116 190.889C142.882 177.417 126.701 168.698 108.517 168.698C77.645 168.698 52.529 193.814 52.529 224.686V257.011C52.529 277.392 63.48 295.259 79.803 305.052V321.282L32.922 336.707C13.23 343.196 0 361.486 0 382.22V393.714C0 397.856 3.357 401.214 7.5 401.214C11.643 401.214 15 397.856 15 393.714V382.22C15 367.976 24.089 355.411 37.613 350.954L81.524 336.505C85.537 347.53 96.121 355.424 108.516 355.424C120.91 355.424 131.494 347.529 135.507 336.505L179.412 350.952C189.036 354.124 196.493 361.43 199.942 370.689L180.414 377.116C160.717 383.598 147.483 401.886 147.483 422.621V431.338H57.427V412.573C57.427 408.431 54.07 405.073 49.927 405.073C45.784 405.073 42.427 408.431 42.427 412.573V431.338H15V428.748C15 424.606 11.643 421.248 7.5 421.248C3.357 421.248 0 424.606 0 428.748V438.838C0 442.98 3.357 446.338 7.5 446.338H147.483V504.498C147.483 508.64 150.84 511.998 154.983 511.998H357.016C361.159 511.998 364.516 508.64 364.516 504.498V494.48C364.516 490.338 361.159 486.98 357.016 486.98C352.873 486.98 349.516 490.338 349.516 494.48V497H322.09V452.982C322.09 448.84 318.733 445.482 314.59 445.482C310.447 445.482 307.09 448.84 307.09 452.982V497H204.91V452.982C204.91 448.84 201.553 445.482 197.41 445.482C193.267 445.482 189.91 448.84 189.91 452.982V497H162.483V422.623C162.483 408.38 171.573 395.818 185.103 391.366L229.009 376.916C233.023 387.939 243.606 395.833 256 395.833C268.394 395.833 278.977 387.94 282.991 376.916L326.897 391.366C340.427 395.819 349.517 408.38 349.517 422.623V459.465C349.517 463.607 352.874 466.965 357.017 466.965C361.16 466.965 364.517 463.607 364.517 459.465V446.34H504.5C508.643 446.34 512 442.982 512 438.84V428.75C512 424.608 508.643 421.25 504.5 421.25C500.357 421.25 497 424.608 497 428.75V431.34H469.573V412.575C469.573 408.433 466.216 405.075 462.073 405.075C457.93 405.075 454.573 408.433 454.573 412.575V431.34H364.516V422.623C364.516 401.887 351.282 383.6 331.585 377.118L312.057 370.691C315.506 361.433 322.962 354.127 332.583 350.955L376.492 336.507C380.505 347.531 391.089 355.426 403.483 355.426C415.878 355.426 426.462 347.531 430.475 336.507L474.382 350.955C487.911 355.411 497 367.976 497 382.22V393.714C497 397.856 500.357 401.214 504.5 401.214ZM403.483 183.697C426.084 183.697 444.471 202.084 444.471 224.685V257.01C444.471 279.611 426.083 297.998 403.483 297.998C380.883 297.998 362.496 279.611 362.496 257.01V224.685C362.496 202.084 380.883 183.697 403.483 183.697ZM215.012 88.313V55.988C215.012 33.387 233.399 15 256 15C278.601 15 296.988 33.387 296.988 55.988V88.313C296.988 110.914 278.6 129.301 256 129.301C233.4 129.301 215.012 110.914 215.012 88.313ZM256 144.301C260.73 144.301 265.323 143.706 269.714 142.596V157.813C269.712 157.884 269.713 157.954 269.714 158.024C269.708 165.581 263.559 171.727 256.001 171.727C248.443 171.727 242.293 165.581 242.288 158.024C242.288 157.953 242.289 157.883 242.288 157.813V142.596C246.677 143.705 251.27 144.301 256 144.301ZM185.105 182.264L229.008 167.809C233.021 178.833 243.605 186.727 255.999 186.727C268.393 186.727 278.977 178.833 282.99 167.809L326.898 182.265C339.435 186.383 348.129 197.362 349.344 210.414C348.141 214.972 347.494 219.754 347.494 224.685V257.01C347.494 258.91 347.591 260.788 347.777 262.64H311.924C310.636 232.902 286.048 209.103 255.998 209.103C225.948 209.103 201.36 232.902 200.072 262.64H164.219C164.405 260.788 164.502 258.91 164.502 257.01V224.685C164.502 219.754 163.855 214.973 162.652 210.414C163.869 197.363 172.564 186.384 185.105 182.264ZM256 338.404C233.399 338.404 215.012 320.017 215.012 297.416V265.091C215.012 242.49 233.4 224.103 256 224.103C278.6 224.103 296.988 242.49 296.988 265.091V297.416C296.988 320.017 278.601 338.404 256 338.404ZM67.528 257.01V224.685C67.528 202.084 85.916 183.697 108.516 183.697C131.116 183.697 149.503 202.084 149.503 224.685V257.01C149.503 279.611 131.116 297.998 108.516 297.998C85.916 297.998 67.528 279.611 67.528 257.01ZM122.229 326.711C122.229 334.273 116.078 340.424 108.516 340.424C100.954 340.424 94.802 334.272 94.802 326.711V311.293C99.192 312.403 103.785 312.998 108.516 312.998C113.246 312.998 117.839 312.403 122.229 311.293V326.711ZM184.104 336.706L137.23 321.282V305.051C147.719 298.758 155.978 289.127 160.549 277.64H200.012V297.416C200.012 317.797 210.963 335.664 227.286 345.457V361.69L214.187 366.001C209.26 352.258 198.309 341.388 184.104 336.706ZM256 380.832C248.438 380.832 242.286 374.68 242.286 367.118V367.027C242.286 367.012 242.286 366.997 242.286 366.983V351.7C246.676 352.81 251.269 353.405 256 353.405C260.731 353.405 265.323 352.81 269.714 351.7V366.983V367.027V367.118C269.714 374.68 263.562 380.832 256 380.832ZM327.893 336.707C313.691 341.388 302.74 352.258 297.814 366.002L284.714 361.691V345.458C301.037 335.665 311.988 317.798 311.988 297.417V277.64H351.451C356.022 289.128 364.281 298.759 374.77 305.051V321.282L327.893 336.707ZM403.483 340.425C395.921 340.425 389.77 334.273 389.77 326.712V311.294C394.16 312.404 398.753 312.999 403.483 312.999C408.213 312.999 412.806 312.404 417.197 311.294V326.712C417.197 334.273 411.045 340.425 403.483 340.425Z" fill="white"/>
</svg>
