<svg id="Layer_1" enable-background="new 0 0 512 512" viewBox="0 0 512 512" xmlns="http://www.w3.org/2000/svg"><path clip-rule="evenodd" d="m161.224 307.931h119.81c.55-1.167 1.12-2.323 1.71-3.47l-9.342-21.035 37.142-37.142 21.037 9.343c1.579-.812 3.176-1.586 4.79-2.321-23.428-38.848-66.027-64.829-114.7-64.829-54.938 0-102.14 33.098-122.766 80.441 26.062 3.299 48.561 18.034 62.319 39.013zm-73.449-23.713c-39.64 0-71.775 32.135-71.775 71.775s32.135 71.775 71.775 71.775 71.775-32.135 71.775-71.775-32.134-71.775-71.775-71.775zm40.551 57.833c-14.152 14.283-28.209 28.661-42.427 42.879-4.156 4.156-10.899 4.156-15.056 0l-23.588-23.588c-4.157-4.156-4.157-10.899 0-15.055 4.157-4.157 10.899-4.157 15.056 0l16.038 16.037 34.9-35.249c4.131-4.172 10.871-4.184 15.032-.047 4.158 4.137 4.172 10.858.045 15.023zm348.971-8.535c-2.372-9.97-6.324-19.493-11.698-28.219l8.14-18.327-21.606-21.605-18.332 8.142c-8.725-5.372-18.245-9.323-28.212-11.695l-7.2-18.708h-30.555l-7.201 18.708c-9.967 2.372-19.487 6.323-28.211 11.695l-18.332-8.142-21.606 21.606 8.141 18.33c-5.373 8.724-9.324 18.245-11.696 28.213l-18.706 7.2v30.555l18.703 7.199c2.373 9.969 6.324 19.493 11.698 28.219l-8.14 18.326 21.606 21.606 18.333-8.142c8.724 5.372 18.243 9.323 28.211 11.695l7.201 18.708h30.555l7.199-18.703c9.97-2.372 19.493-6.324 28.219-11.698l18.326 8.14 21.606-21.606-8.142-18.332c5.372-8.725 9.323-18.244 11.695-28.212l18.708-7.2v-30.555zm-94.187 92.477c-38.663 0-69.999-31.336-69.999-69.999 0-38.664 31.336-70 69.999-70 38.664 0 70 31.337 70 70 .001 38.662-31.336 69.999-70 69.999zm1.991-116.324c-.691-1.819-3.288-1.819-3.979 0l-10.215 26.906c-.307.809-1.022 1.328-1.886 1.37l-28.745 1.401c-1.955.095-2.755 2.558-1.23 3.784l22.432 18.03c.674.542.947 1.382.72 2.217l-7.55 27.772c-.514 1.889 1.582 3.41 3.219 2.339l24.079-15.763c.724-.474 1.607-.474 2.331 0l24.079 15.763c1.638 1.072 3.732-.45 3.219-2.339l-7.55-27.771c-.227-.835.046-1.675.72-2.217l22.432-18.03c1.526-1.226.725-3.689-1.23-3.784l-28.745-1.401c-.864-.042-1.579-.562-1.886-1.37zm-163.43-266.551c37.378 0 67.68 30.301 67.68 67.679s-30.302 67.679-67.68 67.679-67.679-30.301-67.679-67.679 30.301-67.679 67.679-67.679z" fill-rule="evenodd"/></svg>