<svg width="20" height="20" viewBox="0 0 20 20" fill="none" xmlns="http://www.w3.org/2000/svg">
<path d="M13.3406 4.16689H12.5077V3.33398H11.6727V4.16689H10.8398V5.00186H11.6727V5.83476H12.5077V5.00186H13.3406V4.16689Z" fill="#344054"/>
<path d="M5.0061 18.3358L15.0032 18.3337C15.9229 18.3337 16.6711 17.5876 16.6711 16.6658L16.6669 3.33877C16.6669 2.41906 15.9225 1.6709 15.0007 1.6709L4.9999 1.67297C4.0802 1.67297 3.33203 2.41906 3.33203 3.34084L3.33823 16.6679C3.33823 17.5876 4.08433 18.3358 5.0061 18.3358ZM15.003 15.8282H8.33565V14.9932H15.003V15.8282ZM15.003 11.6606V12.4955H8.33565V11.6606H15.003ZM10.0035 3.34084C10.4456 3.34084 10.8674 3.42743 11.2533 3.58409V2.93431H12.9201V3.75006H13.7844V5.41689H13.0859C13.2423 5.80255 13.3289 6.22417 13.3289 6.66625C13.3289 8.50153 11.8409 9.99166 10.0035 9.99166C8.16617 9.99166 6.67811 8.5036 6.67811 6.66625C6.67811 4.8289 8.16824 3.34084 10.0035 3.34084ZM6.25132 10.8308C6.94141 10.8308 7.50068 11.39 7.50068 12.0801C7.50068 12.7702 6.94141 13.3295 6.25132 13.3295C5.56123 13.3295 5.00197 12.7702 5.00197 12.0801C5.00197 11.39 5.56123 10.8308 6.25132 10.8308ZM6.25132 14.1613C6.94141 14.1613 7.50068 14.7206 7.50068 15.4107C7.50068 16.1008 6.94141 16.66 6.25132 16.66C5.56123 16.66 5.00197 16.1008 5.00197 15.4107C5.00197 14.7206 5.56123 14.1613 6.25132 14.1613Z" fill="#344054"/>
<path d="M6.25153 16.214C6.69464 16.214 7.05385 15.8548 7.05385 15.4117C7.05385 14.9686 6.69464 14.6094 6.25153 14.6094C5.80843 14.6094 5.44922 14.9686 5.44922 15.4117C5.44922 15.8548 5.80843 16.214 6.25153 16.214Z" fill="#344054"/>
<path d="M6.25153 12.8829C6.69465 12.8829 7.05385 12.5237 7.05385 12.0806C7.05385 11.6375 6.69465 11.2783 6.25153 11.2783C5.80842 11.2783 5.44922 11.6375 5.44922 12.0806C5.44922 12.5237 5.80842 12.8829 6.25153 12.8829ZM6.25153 11.405C6.62479 11.405 6.92716 11.7076 6.92716 12.0806C6.92716 12.4537 6.62458 12.7563 6.25153 12.7563C5.87848 12.7563 5.57591 12.4537 5.57591 12.0806C5.57591 11.7076 5.87848 11.405 6.25153 11.405Z" fill="#344054"/>
<path d="M9.4368 7.49963H10.608L10.8565 8.33356H11.6894L10.6971 5.00195H9.34772L8.35547 8.33356H9.18837L9.4368 7.49963ZM10.0223 5.53332L10.3594 6.66528H9.68522L10.0223 5.53332Z" fill="#344054"/>
</svg>
