<svg width="24" height="24" viewBox="0 0 24 24" fill="none" xmlns="http://www.w3.org/2000/svg">
<path d="M15 14.25H13.5V9.75H15V14.25ZM15 18V21.75C15 21.9489 14.921 22.1397 14.7803 22.2803C14.6397 22.421 14.4489 22.5 14.25 22.5H9.75C9.55109 22.5 9.36032 22.421 9.21967 22.2803C9.07902 22.1397 9 21.9489 9 21.75V18H10.5V21H13.5V18H15ZM9 14.25V9.75H10.5V14.25H9ZM15 6H13.5V3H10.5V6H9V2.25C9 2.05109 9.07902 1.86032 9.21967 1.71967C9.36032 1.57902 9.55109 1.5 9.75 1.5H14.25C14.4489 1.5 14.6397 1.57902 14.7803 1.71967C14.921 1.86032 15 2.05109 15 2.25V6Z" fill="#FFB600"/>
<path d="M5.17561 6L3.50611 7.875L5.17411 9.75H18.0006V6H5.17561ZM4.83811 4.5H18.7506C18.9495 4.5 19.1403 4.57902 19.2809 4.71967C19.4216 4.86032 19.5006 5.05109 19.5006 5.25V10.5C19.5006 10.6989 19.4216 10.8897 19.2809 11.0303C19.1403 11.171 18.9495 11.25 18.7506 11.25H4.83811C4.7321 11.25 4.62729 11.2276 4.53059 11.1841C4.43389 11.1407 4.3475 11.0773 4.27711 10.998L1.94311 8.373C1.82122 8.23575 1.75391 8.05856 1.75391 7.875C1.75391 7.69144 1.82122 7.51425 1.94311 7.377L4.27711 4.752C4.3475 4.67273 4.43389 4.60929 4.53059 4.56585C4.62729 4.52242 4.7321 4.49997 4.83811 4.5ZM20.7471 16.125L19.0806 18H6.25411V14.25H19.0791L20.7471 16.125ZM19.4166 12.75H5.50561C5.30669 12.75 5.11593 12.829 4.97528 12.9697C4.83462 13.1103 4.75561 13.3011 4.75561 13.5V18.75C4.75561 18.9489 4.83462 19.1397 4.97528 19.2803C5.11593 19.421 5.30669 19.5 5.50561 19.5H19.4181C19.5241 19.5 19.6289 19.4776 19.7256 19.4341C19.8223 19.3907 19.9087 19.3273 19.9791 19.248L22.3131 16.623C22.435 16.4857 22.5023 16.3086 22.5023 16.125C22.5023 15.9414 22.435 15.7643 22.3131 15.627L19.9791 13.002C19.9087 12.9227 19.8223 12.8593 19.7256 12.8159C19.6289 12.7724 19.5241 12.75 19.4181 12.75H19.4166Z" fill="#FFB600"/>
</svg>
