<svg width="18" height="20" viewBox="0 0 18 20" fill="none" xmlns="http://www.w3.org/2000/svg">
<path d="M17.8333 9.99524C17.5975 9.53831 17.2437 9.31937 16.8998 9.10043L16.3496 8.891C16.0647 8.79581 15.6913 8.77677 15.3671 8.84341V1.17087C15.3671 0.466445 14.8758 0 14.1585 0H2.82974C1.24784 0 0 1.11376 0 2.53213V15.2784C0 16.8206 1.24784 18.02 2.82974 18.02H11.2305C11.2404 18.0866 11.26 18.1342 11.2797 18.1913C11.2993 18.2675 11.3288 18.3341 11.3386 18.4579L11.879 19.5145C12.0067 19.7525 12.1443 19.8762 12.4194 20H12.6454C12.7633 20 12.9107 20 13.0384 19.8858L14.1094 19.3622C14.581 19.1337 14.807 18.791 15.0428 18.4579L17.1946 12.7082L17.7055 11.2899C18.0789 10.9186 18.0691 10.3284 17.8333 9.99524ZM15.819 12.9557L13.9227 18.0866C13.9227 18.0866 13.9227 18.1723 13.6771 18.296L12.95 18.6483L12.6552 17.9153C12.5963 17.8486 12.5963 17.7249 12.6847 17.6297L14.581 12.5178L15.8387 12.9557H15.819ZM3.49787 5.06426H12.5373C12.9303 5.06426 13.2153 4.79772 13.2153 4.40743C13.2153 4.01714 12.9402 3.7506 12.5373 3.7506H2.82974C2.0437 3.7506 1.34609 3.17944 1.34609 2.52261C1.34609 1.86578 2.0437 1.29462 2.82974 1.29462H14.021V10.0143L11.4762 16.7158H3.5077V5.06426H3.49787ZM16.6149 10.9472L16.33 11.7658L14.9642 11.2327L15.2492 10.376C15.2492 10.376 15.2492 10.2903 15.4948 10.1761C15.5832 10.1285 15.652 10.1095 15.6913 10.1095C15.711 10.1095 15.7404 10.1095 15.8092 10.1761L16.3987 10.3951C16.3987 10.3951 16.4773 10.3951 16.6247 10.6616C16.6837 10.7187 16.6837 10.852 16.5953 10.9472H16.6149Z" fill="#FFB600"/>
</svg>
